<svg width="513" height="384" viewBox="0 0 513 384" fill="none" xmlns="http://www.w3.org/2000/svg">
<g filter="url(#filter0_d)">
<rect x="19" width="493.15" height="369" rx="17.243" fill="#011627"/>
<circle cx="49.2786" cy="26.8301" r="13.0357" fill="#FF4A4A"/>
<circle cx="82.7996" cy="26.8301" r="13.0357" fill="#FFB83D"/>
<circle cx="116.319" cy="26.8301" r="13.0357" fill="#00C543"/>
<path d="M137.029 105.874H143.761L147.386 120.115C147.524 120.633 147.628 121.237 147.697 121.927L147.8 122.963H148.008L148.111 121.927C148.18 121.271 148.284 120.667 148.422 120.115L152.461 105.874H157.432L161.42 120.115C161.558 120.633 161.661 121.237 161.73 121.927L161.834 122.963H162.041L162.145 121.927C162.214 121.237 162.317 120.633 162.455 120.115L166.08 105.874H172.812L165.821 131.766H159.4L155.257 116.49C155.119 115.938 155.016 115.333 154.947 114.677L154.843 113.642H154.636L154.532 114.677C154.463 115.333 154.36 115.938 154.222 116.49L150.079 131.766H144.02L137.029 105.874ZM188.591 132.284C179.961 132.284 175.645 127.796 175.645 118.82C175.645 114.401 176.646 111.053 178.649 108.774C180.651 106.495 183.447 105.356 187.038 105.356C190.594 105.356 193.373 106.461 195.375 108.67C197.412 110.88 198.43 114.091 198.43 118.302V119.597L196.877 121.151H182.895C182.895 125.466 184.966 127.624 189.109 127.624C190.559 127.624 191.888 127.278 193.097 126.588C193.58 126.346 194.063 126.001 194.547 125.552H195.064L197.395 129.695C196.428 130.282 195.599 130.713 194.909 130.99C192.838 131.853 190.732 132.284 188.591 132.284ZM191.181 116.49C191.181 114.419 190.766 112.83 189.938 111.726C189.144 110.586 188.177 110.017 187.038 110.017C185.898 110.017 184.915 110.586 184.086 111.726C183.292 112.83 182.895 114.419 182.895 116.49H191.181ZM217.049 132.284C215.012 132.284 213.268 131.68 211.818 130.472C211.093 129.919 210.506 129.315 210.058 128.659H209.799L209.281 131.766H204.102V97.5885L206.174 95.5171H211.352V106.91C211.697 106.668 212.164 106.409 212.75 106.133C213.993 105.615 215.253 105.356 216.531 105.356C219.879 105.356 222.52 106.495 224.454 108.774C226.422 111.053 227.405 114.401 227.405 118.82C227.405 123.205 226.456 126.553 224.557 128.866C222.659 131.145 220.156 132.284 217.049 132.284ZM215.754 127.365C217.066 127.365 218.119 126.691 218.913 125.345C219.741 123.999 220.156 121.824 220.156 118.82C220.156 115.644 219.724 113.383 218.861 112.036C217.998 110.69 216.79 110.017 215.236 110.017C214.338 110.017 213.406 110.276 212.44 110.794L211.352 111.57V124.258C211.767 124.879 212.146 125.397 212.491 125.811C213.527 126.847 214.615 127.365 215.754 127.365ZM235.151 132.284C234.115 132.284 233.2 131.904 232.406 131.145C231.647 130.351 231.267 129.436 231.267 128.4C231.267 127.365 231.647 126.467 232.406 125.708C233.2 124.914 234.115 124.517 235.151 124.517C236.187 124.517 237.084 124.914 237.844 125.708C238.638 126.467 239.035 127.365 239.035 128.4C239.035 129.436 238.638 130.351 237.844 131.145C237.084 131.904 236.187 132.284 235.151 132.284ZM246.529 132.284C245.494 132.284 244.579 131.904 243.785 131.145C243.025 130.351 242.645 129.436 242.645 128.4C242.645 127.365 243.025 126.467 243.785 125.708C244.579 124.914 245.494 124.517 246.529 124.517C247.565 124.517 248.463 124.914 249.222 125.708C250.016 126.467 250.413 127.365 250.413 128.4C250.413 129.436 250.016 130.351 249.222 131.145C248.463 131.904 247.565 132.284 246.529 132.284ZM257.908 132.284C256.872 132.284 255.957 131.904 255.163 131.145C254.404 130.351 254.024 129.436 254.024 128.4C254.024 127.365 254.404 126.467 255.163 125.708C255.957 124.914 256.872 124.517 257.908 124.517C258.943 124.517 259.841 124.914 260.601 125.708C261.395 126.467 261.792 127.365 261.792 128.4C261.792 129.436 261.395 130.351 260.601 131.145C259.841 131.904 258.943 132.284 257.908 132.284ZM149.975 196.284C147.006 196.284 144.659 195.473 142.933 193.85C141.241 192.228 140.395 190.105 140.395 187.481V174.535H137.029V171.428L144.797 163.66H147.645V169.874H153.6V174.535H147.645V187.481C147.645 188.862 147.904 189.897 148.422 190.588C148.94 191.278 149.63 191.624 150.493 191.624C151.529 191.624 152.547 191.278 153.548 190.588C153.997 190.277 154.446 189.932 154.895 189.552H155.413L157.743 193.695C156.845 194.282 156.069 194.713 155.413 194.99C153.548 195.853 151.736 196.284 149.975 196.284ZM171.209 196.284C168.067 196.284 165.634 195.438 163.907 193.747C162.216 192.021 161.37 189.587 161.37 186.445V169.874H168.62V186.445C168.62 188.068 168.965 189.293 169.656 190.122C170.346 190.95 171.295 191.365 172.504 191.365C173.643 191.365 174.73 190.847 175.766 189.811C176.111 189.397 176.491 188.879 176.905 188.258V169.874H184.155V195.766H178.977L178.459 192.659H178.2C177.613 193.419 177.026 194.023 176.439 194.472C174.989 195.68 173.246 196.284 171.209 196.284ZM206.934 169.874H212.113L212.631 172.981H212.89C213.269 172.429 213.822 171.825 214.547 171.169C216.031 169.96 217.637 169.356 219.363 169.356C221.469 169.356 223.229 169.96 224.645 171.169C225.266 171.756 225.749 172.36 226.095 172.981C226.578 172.394 227.251 171.79 228.114 171.169C230.048 169.96 231.964 169.356 233.862 169.356C236.762 169.356 239.041 170.219 240.698 171.945C242.355 173.672 243.184 176.088 243.184 179.195V195.766H235.934V179.195C235.934 177.607 235.606 176.399 234.95 175.57C234.328 174.707 233.534 174.276 232.568 174.276C231.636 174.276 230.703 174.707 229.771 175.57C229.53 175.812 229.167 176.244 228.684 176.865V195.766H221.434V179.195C221.434 177.607 221.106 176.399 220.45 175.57C219.829 174.707 219.035 174.276 218.068 174.276C216.963 174.276 215.997 174.794 215.168 175.829C214.719 176.416 214.391 176.934 214.184 177.383V195.766H206.934V169.874ZM261.565 196.284C252.934 196.284 248.619 191.796 248.619 182.82C248.619 178.401 249.62 175.053 251.622 172.774C253.625 170.495 256.421 169.356 260.012 169.356C263.567 169.356 266.347 170.461 268.349 172.67C270.386 174.88 271.404 178.091 271.404 182.302V183.597L269.851 185.151H255.869C255.869 189.466 257.94 191.624 262.083 191.624C263.533 191.624 264.862 191.278 266.07 190.588C266.554 190.346 267.037 190.001 267.52 189.552H268.038L270.368 193.695C269.402 194.282 268.573 194.713 267.883 194.99C265.811 195.853 263.705 196.284 261.565 196.284ZM264.154 180.49C264.154 178.419 263.74 176.83 262.911 175.726C262.117 174.586 261.151 174.017 260.012 174.017C258.872 174.017 257.888 174.586 257.06 175.726C256.266 176.83 255.869 178.419 255.869 180.49H264.154ZM281.737 166.508C280.701 166.508 279.786 166.128 278.992 165.369C278.233 164.575 277.853 163.66 277.853 162.624C277.853 161.589 278.233 160.691 278.992 159.931C279.786 159.137 280.701 158.74 281.737 158.74C282.772 158.74 283.67 159.137 284.43 159.931C285.224 160.691 285.621 161.589 285.621 162.624C285.621 163.66 285.224 164.575 284.43 165.369C283.67 166.128 282.772 166.508 281.737 166.508ZM275.264 206.123C273.883 206.123 272.536 205.864 271.225 205.347C270.569 205.139 270.016 204.88 269.567 204.57L271.38 200.168H271.898C272.243 200.513 272.519 200.738 272.726 200.841C273.382 201.256 274.055 201.463 274.746 201.463C276.99 201.463 278.112 200.082 278.112 197.32V169.874H285.362V197.32C285.362 199.978 284.464 202.101 282.669 203.689C280.908 205.312 278.44 206.123 275.264 206.123ZM302.958 196.284C299.126 196.284 296.175 195.162 294.103 192.918C292.066 190.674 291.048 187.308 291.048 182.82C291.048 178.332 292.066 174.966 294.103 172.722C296.175 170.478 299.126 169.356 302.958 169.356C306.79 169.356 309.725 170.478 311.762 172.722C313.833 174.966 314.869 178.332 314.869 182.82C314.869 187.308 313.833 190.674 311.762 192.918C309.725 195.162 306.79 196.284 302.958 196.284ZM302.958 191.624C306.065 191.624 307.619 188.689 307.619 182.82C307.619 176.951 306.065 174.017 302.958 174.017C299.851 174.017 298.298 176.951 298.298 182.82C298.298 188.689 299.851 191.624 302.958 191.624ZM320.567 169.874H325.746L326.263 172.981H326.522C326.868 172.463 327.454 171.859 328.283 171.169C329.906 169.96 331.649 169.356 333.513 169.356C334.411 169.356 335.291 169.443 336.154 169.615C336.707 169.753 337.121 169.84 337.397 169.874L336.361 175.053H335.844C335.533 175.018 335.153 174.932 334.704 174.794C333.945 174.621 333.116 174.535 332.219 174.535C331.079 174.535 329.992 175.053 328.956 176.088C328.611 176.502 328.231 177.02 327.817 177.642V195.766H320.567V169.874ZM150.234 260.284C146.402 260.284 143.45 259.162 141.379 256.918C139.342 254.674 138.324 251.308 138.324 246.82C138.324 242.332 139.342 238.966 141.379 236.722C143.45 234.478 146.402 233.356 150.234 233.356C154.066 233.356 157.001 234.478 159.038 236.722C161.109 238.966 162.145 242.332 162.145 246.82C162.145 251.308 161.109 254.674 159.038 256.918C157.001 259.162 154.066 260.284 150.234 260.284ZM150.234 255.624C153.341 255.624 154.895 252.689 154.895 246.82C154.895 240.951 153.341 238.017 150.234 238.017C147.127 238.017 145.574 240.951 145.574 246.82C145.574 252.689 147.127 255.624 150.234 255.624ZM167.843 233.874H173.022L173.539 236.981H173.798C174.144 236.463 174.73 235.859 175.559 235.169C177.182 233.96 178.925 233.356 180.789 233.356C183.896 233.356 186.399 234.513 188.298 236.826C190.197 239.104 191.146 242.436 191.146 246.82C191.146 251.239 190.162 254.588 188.194 256.866C186.261 259.145 183.62 260.284 180.271 260.284C178.856 260.284 177.596 260.025 176.491 259.507C175.939 259.3 175.473 259.041 175.093 258.731V268.052L173.022 270.123H167.843V233.874ZM178.977 255.624C180.53 255.624 181.739 254.95 182.602 253.604C183.465 252.258 183.896 249.996 183.896 246.82C183.896 243.817 183.482 241.642 182.653 240.295C181.859 238.949 180.806 238.276 179.495 238.276C178.355 238.276 177.268 238.794 176.232 239.829C175.887 240.244 175.507 240.761 175.093 241.383V254.07C175.473 254.381 175.835 254.64 176.18 254.847C177.009 255.365 177.941 255.624 178.977 255.624ZM207.954 260.284C199.496 260.284 195.267 255.796 195.267 246.82C195.267 242.332 196.302 238.966 198.374 236.722C200.445 234.478 203.466 233.356 207.436 233.356C209.404 233.356 211.51 233.788 213.754 234.651C214.444 234.927 215.273 235.359 216.239 235.945L213.909 240.088H213.391C212.908 239.639 212.425 239.294 211.941 239.053C210.733 238.362 209.404 238.017 207.954 238.017C206.193 238.017 204.847 238.69 203.915 240.036C202.983 241.348 202.516 243.61 202.516 246.82C202.516 250.065 203 252.344 203.966 253.656C204.933 254.968 206.435 255.624 208.472 255.624C209.922 255.624 211.251 255.278 212.459 254.588C212.942 254.346 213.426 254.001 213.909 253.552H214.427L216.757 257.695C215.791 258.282 214.962 258.713 214.272 258.99C212.2 259.853 210.094 260.284 207.954 260.284ZM225.023 230.508C223.987 230.508 223.072 230.128 222.278 229.369C221.518 228.575 221.139 227.66 221.139 226.624C221.139 225.589 221.518 224.691 222.278 223.931C223.072 223.137 223.987 222.74 225.023 222.74C226.058 222.74 226.956 223.137 227.715 223.931C228.509 224.691 228.906 225.589 228.906 226.624C228.906 227.66 228.509 228.575 227.715 229.369C226.956 230.128 226.058 230.508 225.023 230.508ZM221.398 259.766V233.874H228.647V259.766H221.398ZM246.268 260.284C242.436 260.284 239.485 259.162 237.413 256.918C235.376 254.674 234.358 251.308 234.358 246.82C234.358 242.332 235.376 238.966 237.413 236.722C239.485 234.478 242.436 233.356 246.268 233.356C250.1 233.356 253.035 234.478 255.072 236.722C257.143 238.966 258.179 242.332 258.179 246.82C258.179 251.308 257.143 254.674 255.072 256.918C253.035 259.162 250.1 260.284 246.268 260.284ZM246.268 255.624C249.375 255.624 250.929 252.689 250.929 246.82C250.929 240.951 249.375 238.017 246.268 238.017C243.161 238.017 241.608 240.951 241.608 246.82C241.608 252.689 243.161 255.624 246.268 255.624ZM243.524 231.285L245.854 223.517H252.845L247.667 231.285H243.524ZM263.877 233.874H269.056L269.573 236.981H269.832C270.178 236.463 270.765 235.859 271.593 235.169C273.216 233.96 274.959 233.356 276.823 233.356C279.965 233.356 282.382 234.219 284.073 235.945C285.799 237.637 286.662 240.054 286.662 243.195V259.766H279.413V243.195C279.413 241.573 279.067 240.347 278.377 239.519C277.686 238.69 276.737 238.276 275.529 238.276C274.389 238.276 273.302 238.794 272.266 239.829C271.921 240.244 271.541 240.761 271.127 241.383V259.766H263.877V233.874Z" fill="white"/>
</g>
<defs>
<filter id="filter0_d" x="0" y="0" width="512.15" height="384" filterUnits="userSpaceOnUse" color-interpolation-filters="sRGB">
<feFlood flood-opacity="0" result="BackgroundImageFix"/>
<feColorMatrix in="SourceAlpha" type="matrix" values="0 0 0 0 0 0 0 0 0 0 0 0 0 0 0 0 0 0 127 0" result="hardAlpha"/>
<feOffset dx="-15" dy="11"/>
<feGaussianBlur stdDeviation="2"/>
<feComposite in2="hardAlpha" operator="out"/>
<feColorMatrix type="matrix" values="0 0 0 0 0 0 0 0 0 0 0 0 0 0 0 0 0 0 0.25 0"/>
<feBlend mode="normal" in2="BackgroundImageFix" result="effect1_dropShadow"/>
<feBlend mode="normal" in="SourceGraphic" in2="effect1_dropShadow" result="shape"/>
</filter>
</defs>
</svg>
