<svg width="457" height="366" viewBox="0 0 457 366" fill="none" xmlns="http://www.w3.org/2000/svg">
<g filter="url(#filter0_d)">
<rect x="58.3407" y="22.3407" width="384.319" height="212.319" rx="10.6593" fill="url(#paint0_linear)"/>
<rect x="152" y="98.4575" width="15.8107" height="81.3123" rx="7.90536" fill="#FCF7F7"/>
<rect x="196.044" y="118.785" width="15.8107" height="60.9842" rx="7.90536" fill="#FCF7F7"/>
<rect x="245.735" y="81.5173" width="15.8107" height="98.2524" rx="7.90536" fill="#FCF7F7"/>
<rect x="289.779" y="98.4575" width="15.8107" height="81.3123" rx="7.90536" fill="#FCF7F7"/>
<rect x="333.823" y="77" width="15.8107" height="102.77" rx="7.90536" fill="#FCF7F7"/>
<rect x="74.6517" y="38.6519" width="71.2769" height="27.2328" rx="7.9697" fill="#FBF2F2" stroke="#021A56" stroke-width="2.13"/>
<path d="M80.6456 47.9387H82.6034C84.9833 47.9387 86.1733 49.2823 86.1733 51.9694C86.1733 54.6565 84.9833 56 82.6034 56H80.6456V47.9387ZM82.6034 54.9636C83.041 54.9636 83.4018 54.8714 83.6859 54.6872C83.9776 54.5029 84.1964 54.192 84.3423 53.7544C84.4882 53.3168 84.5611 52.7218 84.5611 51.9694C84.5611 51.217 84.4882 50.622 84.3423 50.1844C84.1964 49.7468 83.9776 49.4358 83.6859 49.2516C83.4018 49.0673 83.041 48.9752 82.6034 48.9752H82.2579V54.9636H82.6034ZM88.3641 49.4934C88.1338 49.4934 87.9303 49.409 87.7537 49.2401C87.5848 49.0635 87.5004 48.86 87.5004 48.6297C87.5004 48.3994 87.5848 48.1998 87.7537 48.0309C87.9303 47.8543 88.1338 47.766 88.3641 47.766C88.5944 47.766 88.794 47.8543 88.9629 48.0309C89.1395 48.1998 89.2278 48.3994 89.2278 48.6297C89.2278 48.86 89.1395 49.0635 88.9629 49.2401C88.794 49.409 88.5944 49.4934 88.3641 49.4934ZM87.558 56V50.242H89.1702V56H87.558ZM92.9161 58.4184C92.4017 58.4184 91.9142 58.3224 91.4536 58.1305C91.277 58.0614 91.0927 57.9654 90.9008 57.8426L91.419 56.9213H91.5342C91.634 57.0057 91.7453 57.0825 91.8681 57.1516C92.1368 57.3052 92.4478 57.3819 92.8009 57.3819C93.1771 57.3819 93.4727 57.2706 93.6877 57.048C93.9026 56.833 94.0101 56.5221 94.0101 56.1152V55.7697C93.9026 55.8465 93.7952 55.904 93.6877 55.9424C93.4113 56.0576 93.1349 56.1152 92.8585 56.1152C92.1138 56.1152 91.5227 55.8618 91.085 55.3551C90.6551 54.8484 90.4401 54.1037 90.4401 53.121C90.4401 52.1459 90.6513 51.4051 91.0735 50.8984C91.4958 50.384 92.0524 50.1268 92.7434 50.1268C93.1579 50.1268 93.5456 50.2611 93.9065 50.5299C94.06 50.6604 94.1905 50.7947 94.298 50.9329H94.3556L94.4708 50.242H95.6224V56.1152C95.6224 56.5604 95.5149 56.9558 95.2999 57.3013C95.085 57.6545 94.774 57.927 94.3671 58.119C93.9602 58.3186 93.4765 58.4184 92.9161 58.4184ZM93.1464 55.0787C93.3767 55.0787 93.584 55.0211 93.7683 54.906C93.8527 54.8599 93.9334 54.8023 94.0101 54.7332V51.9118C93.918 51.7736 93.8335 51.6584 93.7568 51.5663C93.5265 51.336 93.2846 51.2208 93.0313 51.2208C92.7395 51.2208 92.5015 51.3705 92.3173 51.67C92.1407 51.9694 92.0524 52.453 92.0524 53.121C92.0524 53.8273 92.1484 54.3302 92.3403 54.6296C92.5322 54.929 92.8009 55.0787 93.1464 55.0787ZM98.0358 49.4934C97.8055 49.4934 97.602 49.409 97.4255 49.2401C97.2566 49.0635 97.1721 48.86 97.1721 48.6297C97.1721 48.3994 97.2566 48.1998 97.4255 48.0309C97.602 47.8543 97.8055 47.766 98.0358 47.766C98.2661 47.766 98.4657 47.8543 98.6346 48.0309C98.8112 48.1998 98.8995 48.3994 98.8995 48.6297C98.8995 48.86 98.8112 49.0635 98.6346 49.2401C98.4657 49.409 98.2661 49.4934 98.0358 49.4934ZM97.2297 56V50.242H98.8419V56H97.2297ZM102.703 56.1152C102.043 56.1152 101.521 55.9347 101.137 55.5739C100.761 55.2131 100.572 54.7409 100.572 54.1574V51.2784H99.824V50.5874L101.551 48.86H102.185V50.242H103.509V51.2784H102.185V54.1574C102.185 54.4645 102.242 54.6948 102.357 54.8484C102.473 55.0019 102.626 55.0787 102.818 55.0787C103.048 55.0787 103.275 55.0019 103.498 54.8484C103.597 54.7793 103.697 54.7025 103.797 54.6181H103.912L104.43 55.5394C104.231 55.6699 104.058 55.7658 103.912 55.8273C103.498 56.0192 103.095 56.1152 102.703 56.1152ZM107.022 56.1152C106.346 56.1152 105.82 55.9539 105.444 55.6315C105.076 55.3014 104.891 54.8676 104.891 54.3302C104.891 53.7544 105.099 53.3052 105.513 52.9828C105.936 52.6527 106.592 52.4876 107.483 52.4876H108.289V52.3149C108.289 51.9079 108.2 51.6162 108.024 51.4396C107.847 51.2554 107.571 51.1632 107.195 51.1632C106.872 51.1632 106.577 51.24 106.308 51.3936C106.2 51.4473 106.093 51.5241 105.986 51.6239H105.87L105.352 50.7026C105.536 50.5798 105.717 50.4838 105.893 50.4147C106.392 50.2228 106.865 50.1268 107.31 50.1268C107.847 50.1268 108.312 50.2228 108.703 50.4147C109.095 50.599 109.39 50.8561 109.59 51.1863C109.797 51.5164 109.901 51.8926 109.901 52.3149V56H108.749L108.634 55.309H108.577C108.446 55.4779 108.316 55.6123 108.185 55.7121C107.863 55.9808 107.475 56.1152 107.022 56.1152ZM107.31 55.0211C107.548 55.0211 107.782 54.906 108.012 54.6756C108.12 54.5682 108.212 54.453 108.289 54.3302V53.524H107.483C106.83 53.524 106.504 53.7927 106.504 54.3302C106.504 54.5375 106.573 54.7064 106.711 54.8369C106.857 54.9597 107.057 55.0211 107.31 55.0211ZM111.456 56V48.3994L111.917 47.9387H113.068V56H111.456ZM117.503 50.242H119L119.806 53.4089C119.837 53.524 119.86 53.6584 119.875 53.8119L119.898 54.0423H119.944L119.967 53.8119C119.983 53.6661 120.006 53.5317 120.036 53.4089L120.935 50.242H122.04L122.927 53.4089C122.958 53.524 122.981 53.6584 122.996 53.8119L123.019 54.0423H123.065L123.088 53.8119C123.104 53.6584 123.127 53.524 123.157 53.4089L123.963 50.242H125.461L123.906 56H122.478L121.557 52.6028C121.526 52.4799 121.503 52.3456 121.488 52.1997L121.464 51.9694H121.418L121.395 52.1997C121.38 52.3456 121.357 52.4799 121.326 52.6028L120.405 56H119.058L117.503 50.242ZM128.97 56.1152C127.05 56.1152 126.091 55.1171 126.091 53.121C126.091 52.1383 126.313 51.3936 126.758 50.8869C127.204 50.3801 127.826 50.1268 128.624 50.1268C129.415 50.1268 130.033 50.3725 130.478 50.8638C130.931 51.3552 131.158 52.0692 131.158 53.0058V53.2937L130.812 53.6392H127.703C127.703 54.5989 128.163 55.0787 129.085 55.0787C129.407 55.0787 129.703 55.0019 129.971 54.8484C130.079 54.7946 130.186 54.7179 130.294 54.6181H130.409L130.927 55.5394C130.712 55.6699 130.528 55.7658 130.375 55.8273C129.914 56.0192 129.446 56.1152 128.97 56.1152ZM129.545 52.6028C129.545 52.1421 129.453 51.7889 129.269 51.5433C129.092 51.2899 128.877 51.1632 128.624 51.1632C128.371 51.1632 128.152 51.2899 127.968 51.5433C127.791 51.7889 127.703 52.1421 127.703 52.6028H129.545ZM135.298 56.1152C134.845 56.1152 134.457 55.9808 134.135 55.7121C133.974 55.5893 133.843 55.4549 133.743 55.309H133.686L133.571 56H132.419V48.3994L132.88 47.9387H134.031V50.4723C134.108 50.4185 134.212 50.361 134.342 50.2995C134.619 50.1844 134.899 50.1268 135.183 50.1268C135.928 50.1268 136.515 50.3801 136.945 50.8869C137.382 51.3936 137.601 52.1383 137.601 53.121C137.601 54.096 137.39 54.8407 136.968 55.3551C136.546 55.8618 135.989 56.1152 135.298 56.1152ZM135.01 55.0211C135.302 55.0211 135.536 54.8714 135.713 54.572C135.897 54.2726 135.989 53.7889 135.989 53.121C135.989 52.4147 135.893 51.9118 135.701 51.6124C135.509 51.313 135.24 51.1632 134.895 51.1632C134.695 51.1632 134.488 51.2208 134.273 51.336L134.031 51.5087V54.3302C134.123 54.4684 134.208 54.5835 134.285 54.6756C134.515 54.906 134.757 55.0211 135.01 55.0211Z" fill="#2944A6"/>
<rect x="58.3407" y="22.3407" width="384.319" height="212.319" rx="10.6593" stroke="black" stroke-width="14.6814"/>
<rect x="228.441" y="234.441" width="42.1171" height="70.1171" rx="4.55856" fill="black" stroke="black" stroke-width="0.882883"/>
<path d="M338.559 311C338.559 311.595 338.109 312.288 336.958 313.05C335.829 313.799 334.135 314.538 331.91 315.251C327.469 316.675 321.018 317.963 313.02 319.048C297.029 321.216 274.925 322.559 250.5 322.559C226.075 322.559 203.971 321.216 187.98 319.048C179.982 317.963 173.531 316.675 169.09 315.251C166.865 314.538 165.171 313.799 164.042 313.05C162.891 312.288 162.441 311.595 162.441 311C162.441 310.405 162.891 309.712 164.042 308.95C165.171 308.201 166.865 307.462 169.09 306.749C173.531 305.325 179.982 304.037 187.98 302.952C203.971 300.784 226.075 299.441 250.5 299.441C274.925 299.441 297.029 300.784 313.02 302.952C321.018 304.037 327.469 305.325 331.91 306.749C334.135 307.462 335.829 308.201 336.958 308.95C338.109 309.712 338.559 310.405 338.559 311Z" fill="black" stroke="black" stroke-width="0.882883"/>
</g>
<defs>
<filter id="filter0_d" x="0" y="0" width="457" height="366" filterUnits="userSpaceOnUse" color-interpolation-filters="sRGB">
<feFlood flood-opacity="0" result="BackgroundImageFix"/>
<feColorMatrix in="SourceAlpha" type="matrix" values="0 0 0 0 0 0 0 0 0 0 0 0 0 0 0 0 0 0 127 0" result="hardAlpha"/>
<feOffset dx="-22" dy="14"/>
<feGaussianBlur stdDeviation="14.5"/>
<feComposite in2="hardAlpha" operator="out"/>
<feColorMatrix type="matrix" values="0 0 0 0 0.126389 0 0 0 0 0.433333 0 0 0 0 0.378083 0 0 0 0.45 0"/>
<feBlend mode="normal" in2="BackgroundImageFix" result="effect1_dropShadow"/>
<feBlend mode="normal" in="SourceGraphic" in2="effect1_dropShadow" result="shape"/>
</filter>
<linearGradient id="paint0_linear" x1="112.675" y1="15" x2="285.555" y2="174.347" gradientUnits="userSpaceOnUse">
<stop stop-color="#3EFEDB"/>
<stop offset="0.0001" stop-color="#3EFEDB"/>
<stop offset="1" stop-color="#FE15F5" stop-opacity="0.99"/>
</linearGradient>
</defs>
</svg>
