<svg width="199" height="363" viewBox="0 0 199 363" fill="none" xmlns="http://www.w3.org/2000/svg">
<g filter="url(#filter0_bd)">
<rect x="4" width="191" height="355" rx="57" fill="url(#paint0_linear)"/>
<rect x="7.5" y="3.5" width="184" height="348" rx="53.5" stroke="url(#paint1_linear)" stroke-width="7"/>
</g>
<g filter="url(#filter1_d)">
<path d="M148 99.5H155.5M163 99.5H155.5M155.5 99.5V141H146H163" stroke="#B5B5B5"/>
</g>
<g filter="url(#filter2_d)">
<path d="M133 170L133 177.5M133 185L133 177.5M133 177.5L66 177.5L66 168L66 185" stroke="#B5B5B5"/>
</g>
<g filter="url(#filter3_d)">
<path d="M20 204H179.5" stroke="#A59696" stroke-width="4"/>
</g>
<g filter="url(#filter4_d)">
<path d="M89.8099 135V97H100.124H133V135M89.8099 135H98.655M89.8099 135L81 138.796M89.8099 135L75.3425 142.5M133 135V142.5L100.124 158H97.5455M133 135H126.5M133 135L125 138.385M97.5455 158V150M97.5455 158H55V150M97.5455 150H92.5M97.5455 150L113.5 143.25M55 150H60.875M55 150L81 138.796M92.5 150L126.5 135M92.5 150H86.5M126.5 135H116M116 135L86.5 150M116 135H107.5M86.5 150H78.5M78.5 150L107.5 135M78.5 150H66.75M107.5 135H98.655M98.655 135L66.75 150M66.75 150H60.875M60.875 150L75.3425 142.5M125 138.385L81 138.796M125 138.385L113.5 143.25M113.5 143.25C112.7 143.588 87.7283 142.891 75.3425 142.5M92.5 100V130H128.5V100H92.5Z" stroke="black"/>
</g>
<g filter="url(#filter5_d)">
<path d="M30.2363 36.8189H32.7088C35.7146 36.8189 37.2176 38.5158 37.2176 41.9095C37.2176 45.3032 35.7146 47 32.7088 47H30.2363V36.8189ZM32.7088 45.691C33.2615 45.691 33.7172 45.5747 34.076 45.3419C34.4444 45.1092 34.7208 44.7165 34.905 44.1638C35.0892 43.6112 35.1814 42.8597 35.1814 41.9095C35.1814 40.9592 35.0892 40.2078 34.905 39.6551C34.7208 39.1024 34.4444 38.7097 34.076 38.477C33.7172 38.2443 33.2615 38.1279 32.7088 38.1279H32.2725V45.691H32.7088ZM39.9844 38.7824C39.6935 38.7824 39.4366 38.6758 39.2136 38.4625C39.0002 38.2394 38.8936 37.9825 38.8936 37.6916C38.8936 37.4007 39.0002 37.1486 39.2136 36.9353C39.4366 36.7123 39.6935 36.6008 39.9844 36.6008C40.2753 36.6008 40.5274 36.7123 40.7407 36.9353C40.9637 37.1486 41.0752 37.4007 41.0752 37.6916C41.0752 37.9825 40.9637 38.2394 40.7407 38.4625C40.5274 38.6758 40.2753 38.7824 39.9844 38.7824ZM38.9663 47V39.7278H41.0025V47H38.9663ZM45.7334 50.0543C45.0838 50.0543 44.468 49.9331 43.8863 49.6907C43.6633 49.6034 43.4305 49.4822 43.1881 49.3271L43.8426 48.1635H43.9881C44.1141 48.2702 44.2547 48.3672 44.4099 48.4544C44.7492 48.6484 45.1419 48.7453 45.588 48.7453C46.0631 48.7453 46.4364 48.6047 46.7079 48.3235C46.9794 48.052 47.1151 47.6593 47.1151 47.1454V46.7091C46.9794 46.8061 46.8436 46.8788 46.7079 46.9273C46.3588 47.0727 46.0097 47.1454 45.6607 47.1454C44.7201 47.1454 43.9735 46.8255 43.4208 46.1855C42.8779 45.5456 42.6064 44.605 42.6064 43.3639C42.6064 42.1325 42.873 41.1968 43.4063 40.5568C43.9396 39.9072 44.6426 39.5824 45.5152 39.5824C46.0388 39.5824 46.5285 39.7521 46.9842 40.0914C47.1781 40.2563 47.343 40.4259 47.4787 40.6005H47.5514L47.6969 39.7278H49.1513V47.1454C49.1513 47.7078 49.0156 48.2072 48.7441 48.6435C48.4726 49.0895 48.0799 49.4338 47.566 49.6762C47.0521 49.9283 46.4412 50.0543 45.7334 50.0543ZM46.0243 45.8365C46.3152 45.8365 46.577 45.7637 46.8097 45.6183C46.9163 45.5601 47.0182 45.4874 47.1151 45.4001V41.8368C46.9988 41.6622 46.8921 41.5168 46.7951 41.4004C46.5043 41.1095 46.1988 40.9641 45.8788 40.9641C45.5104 40.9641 45.2098 41.1532 44.9771 41.5313C44.7541 41.9095 44.6426 42.5203 44.6426 43.3639C44.6426 44.256 44.7638 44.8911 45.0062 45.2692C45.2486 45.6474 45.588 45.8365 46.0243 45.8365ZM52.1994 38.7824C51.9085 38.7824 51.6516 38.6758 51.4285 38.4625C51.2152 38.2394 51.1086 37.9825 51.1086 37.6916C51.1086 37.4007 51.2152 37.1486 51.4285 36.9353C51.6516 36.7123 51.9085 36.6008 52.1994 36.6008C52.4903 36.6008 52.7424 36.7123 52.9557 36.9353C53.1787 37.1486 53.2902 37.4007 53.2902 37.6916C53.2902 37.9825 53.1787 38.2394 52.9557 38.4625C52.7424 38.6758 52.4903 38.7824 52.1994 38.7824ZM51.1813 47V39.7278H53.2175V47H51.1813ZM58.0938 47.1454C57.26 47.1454 56.6006 46.9176 56.1158 46.4619C55.6407 46.0061 55.4031 45.4098 55.4031 44.6729V41.0368H54.4577V40.1641L56.6394 37.9825H57.4393V39.7278H59.1119V41.0368H57.4393V44.6729C57.4393 45.0608 57.5121 45.3516 57.6575 45.5456C57.8029 45.7395 57.9969 45.8365 58.2393 45.8365C58.5302 45.8365 58.8162 45.7395 59.0974 45.5456C59.2234 45.4583 59.3495 45.3613 59.4755 45.2547H59.621L60.2755 46.4182C60.0234 46.5831 59.8052 46.7043 59.621 46.7818C59.0974 47.0242 58.5883 47.1454 58.0938 47.1454ZM63.5485 47.1454C62.6953 47.1454 62.0311 46.9418 61.556 46.5346C61.0905 46.1176 60.8578 45.5698 60.8578 44.8911C60.8578 44.1638 61.1196 43.5966 61.6432 43.1894C62.1765 42.7724 63.0056 42.564 64.1303 42.564H65.1484V42.3458C65.1484 41.8319 65.0369 41.4634 64.8139 41.2404C64.5909 41.0077 64.2418 40.8914 63.7667 40.8914C63.3595 40.8914 62.9862 40.9883 62.6468 41.1823C62.511 41.2501 62.3753 41.3471 62.2395 41.4731H62.0941L61.4396 40.3096C61.6723 40.1545 61.9002 40.0333 62.1232 39.946C62.7534 39.7036 63.3498 39.5824 63.9121 39.5824C64.5909 39.5824 65.1775 39.7036 65.672 39.946C66.1665 40.1787 66.5398 40.5035 66.7919 40.9205C67.0537 41.3374 67.1846 41.8125 67.1846 42.3458V47H65.7302L65.5848 46.1273H65.512C65.3472 46.3407 65.1824 46.5103 65.0175 46.6364C64.6103 46.9758 64.1206 47.1454 63.5485 47.1454ZM63.9121 45.7637C64.2127 45.7637 64.5085 45.6183 64.7994 45.3274C64.9351 45.1917 65.0515 45.0462 65.1484 44.8911V43.873H64.1303C63.3061 43.873 62.894 44.2123 62.894 44.8911C62.894 45.1529 62.9813 45.3662 63.1558 45.531C63.3401 45.6862 63.5922 45.7637 63.9121 45.7637ZM69.1487 47V37.4007L69.7305 36.8189H71.1849V47H69.1487ZM76.7856 39.7278H78.6764L79.6945 43.7275C79.7333 43.873 79.7624 44.0426 79.7817 44.2366L79.8108 44.5275H79.869L79.8981 44.2366C79.9175 44.0523 79.9466 43.8827 79.9854 43.7275L81.1198 39.7278H82.5161L83.636 43.7275C83.6748 43.873 83.7039 44.0426 83.7233 44.2366L83.7524 44.5275H83.8105L83.8396 44.2366C83.859 44.0426 83.8881 43.873 83.9269 43.7275L84.945 39.7278H86.8358L84.8723 47H83.0688L81.9052 42.7094C81.8664 42.5543 81.8374 42.3846 81.818 42.2004L81.7889 41.9095H81.7307L81.7016 42.2004C81.6822 42.3846 81.6531 42.5543 81.6143 42.7094L80.4508 47H78.7491L76.7856 39.7278ZM91.2675 47.1454C88.8434 47.1454 87.6314 45.8849 87.6314 43.3639C87.6314 42.1228 87.9126 41.1823 88.475 40.5423C89.0373 39.9024 89.8227 39.5824 90.8311 39.5824C91.8299 39.5824 92.6104 39.8927 93.1728 40.5132C93.7449 41.1338 94.0309 42.0355 94.0309 43.2185V43.5821L93.5946 44.0184H89.6676C89.6676 45.2304 90.2494 45.8365 91.4129 45.8365C91.8202 45.8365 92.1935 45.7395 92.5328 45.5456C92.6686 45.4777 92.8043 45.3807 92.9401 45.2547H93.0855L93.74 46.4182C93.4685 46.5831 93.2358 46.7043 93.0419 46.7818C92.4601 47.0242 91.8686 47.1454 91.2675 47.1454ZM91.9947 42.7094C91.9947 42.1276 91.8783 41.6816 91.6456 41.3713C91.4226 41.0514 91.1511 40.8914 90.8311 40.8914C90.5112 40.8914 90.2348 41.0514 90.0021 41.3713C89.7791 41.6816 89.6676 42.1276 89.6676 42.7094H91.9947ZM99.2601 47.1454C98.688 47.1454 98.1983 46.9758 97.7911 46.6364C97.5875 46.4813 97.4226 46.3116 97.2966 46.1273H97.2239L97.0784 47H95.624V37.4007L96.2057 36.8189H97.6602V40.0187C97.7571 39.9508 97.888 39.8781 98.0529 39.8005C98.4019 39.6551 98.7559 39.5824 99.1146 39.5824C100.055 39.5824 100.797 39.9024 101.34 40.5423C101.893 41.1823 102.169 42.1228 102.169 43.3639C102.169 44.5953 101.902 45.5359 101.369 46.1855C100.836 46.8255 100.133 47.1454 99.2601 47.1454ZM98.8965 45.7637C99.2649 45.7637 99.5606 45.5747 99.7837 45.1965C100.016 44.8183 100.133 44.2075 100.133 43.3639C100.133 42.4719 100.012 41.8368 99.7691 41.4586C99.5267 41.0804 99.1873 40.8914 98.751 40.8914C98.4989 40.8914 98.2371 40.9641 97.9656 41.1095L97.6602 41.3277V44.8911C97.7765 45.0656 97.8832 45.211 97.9802 45.3274C98.271 45.6183 98.5765 45.7637 98.8965 45.7637ZM109.796 47V38.1279H107.25V36.8189H114.377V38.1279H111.832V47H109.796ZM115.755 47V36.8189H117.792V45.691H121.719V47H115.755ZM125.135 47.1454C124.282 47.1454 123.617 46.9418 123.142 46.5346C122.677 46.1176 122.444 45.5698 122.444 44.8911C122.444 44.1638 122.706 43.5966 123.23 43.1894C123.763 42.7724 124.592 42.564 125.717 42.564H126.735V42.3458C126.735 41.8319 126.623 41.4634 126.4 41.2404C126.177 41.0077 125.828 40.8914 125.353 40.8914C124.946 40.8914 124.572 40.9883 124.233 41.1823C124.097 41.2501 123.962 41.3471 123.826 41.4731H123.68L123.026 40.3096C123.259 40.1545 123.486 40.0333 123.709 39.946C124.34 39.7036 124.936 39.5824 125.498 39.5824C126.177 39.5824 126.764 39.7036 127.258 39.946C127.753 40.1787 128.126 40.5035 128.378 40.9205C128.64 41.3374 128.771 41.8125 128.771 42.3458V47H127.316L127.171 46.1273H127.098C126.933 46.3407 126.769 46.5103 126.604 46.6364C126.197 46.9758 125.707 47.1454 125.135 47.1454ZM125.498 45.7637C125.799 45.7637 126.095 45.6183 126.386 45.3274C126.521 45.1917 126.638 45.0462 126.735 44.8911V43.873H125.717C124.892 43.873 124.48 44.2123 124.48 44.8911C124.48 45.1529 124.568 45.3662 124.742 45.531C124.926 45.6862 125.178 45.7637 125.498 45.7637ZM132.044 43.2912L129.935 39.7278H132.044L133.062 41.6186C133.101 41.7059 133.13 41.7834 133.149 41.8513C133.178 41.9192 133.203 41.9773 133.222 42.0258L133.251 42.2004H133.309L133.338 42.0258C133.348 41.987 133.363 41.9289 133.382 41.8513C133.411 41.764 133.45 41.6865 133.498 41.6186L134.516 39.7278H136.625L134.516 43.2912L136.698 47H134.589L133.498 45.0365C133.45 44.9589 133.411 44.8814 133.382 44.8038C133.363 44.7262 133.348 44.6729 133.338 44.6438C133.319 44.5662 133.309 44.5032 133.309 44.4547H133.251C133.251 44.5032 133.241 44.5662 133.222 44.6438C133.203 44.7214 133.149 44.8523 133.062 45.0365L131.971 47H129.862L132.044 43.2912ZM140.196 47.1454C139.323 47.1454 138.62 46.8255 138.087 46.1855C137.553 45.5359 137.287 44.5953 137.287 43.3639C137.287 42.1228 137.558 41.1823 138.101 40.5423C138.654 39.9024 139.401 39.5824 140.341 39.5824C140.545 39.5824 140.719 39.6018 140.865 39.6406C141.02 39.6793 141.194 39.7327 141.388 39.8005L141.795 40.0187V37.4007L142.377 36.8189H143.832V47H142.377L142.232 46.1273H142.159C141.994 46.3407 141.829 46.5103 141.665 46.6364C141.257 46.9758 140.768 47.1454 140.196 47.1454ZM140.559 45.7637C140.879 45.7637 141.185 45.6183 141.476 45.3274C141.572 45.211 141.679 45.0656 141.795 44.8911V41.3277L141.49 41.1095C141.219 40.9641 140.957 40.8914 140.705 40.8914C140.268 40.8914 139.929 41.0804 139.687 41.4586C139.444 41.8368 139.323 42.4719 139.323 43.3639C139.323 44.2075 139.434 44.8183 139.657 45.1965C139.89 45.5747 140.191 45.7637 140.559 45.7637ZM149.061 47.1454C146.637 47.1454 145.425 45.8849 145.425 43.3639C145.425 42.1228 145.707 41.1823 146.269 40.5423C146.831 39.9024 147.617 39.5824 148.625 39.5824C149.624 39.5824 150.404 39.8927 150.967 40.5132C151.539 41.1338 151.825 42.0355 151.825 43.2185V43.5821L151.389 44.0184H147.462C147.462 45.2304 148.043 45.8365 149.207 45.8365C149.614 45.8365 149.987 45.7395 150.327 45.5456C150.463 45.4777 150.598 45.3807 150.734 45.2547H150.879L151.534 46.4182C151.262 46.5831 151.03 46.7043 150.836 46.7818C150.254 47.0242 149.663 47.1454 149.061 47.1454ZM149.789 42.7094C149.789 42.1276 149.672 41.6816 149.44 41.3713C149.217 41.0514 148.945 40.8914 148.625 40.8914C148.305 40.8914 148.029 41.0514 147.796 41.3713C147.573 41.6816 147.462 42.1276 147.462 42.7094H149.789ZM152.618 39.7278H154.538L155.847 44.2366C155.886 44.382 155.915 44.5517 155.934 44.7456L155.963 45.0365H156.021L156.05 44.7456C156.07 44.5614 156.099 44.3917 156.138 44.2366L157.447 39.7278H159.323L156.923 47H155.018L152.618 39.7278ZM162.962 47.1454C162.196 47.1454 161.479 47.0242 160.81 46.7818C160.557 46.6946 160.281 46.5734 159.98 46.4182L160.635 45.2547H160.78C160.965 45.371 161.139 45.468 161.304 45.5456C161.711 45.7395 162.191 45.8365 162.744 45.8365C163.229 45.8365 163.578 45.7637 163.791 45.6183C164.014 45.4631 164.126 45.2644 164.126 45.022C164.126 44.7893 164.004 44.605 163.762 44.4693C163.52 44.3335 163.146 44.1881 162.642 44.033C162.109 43.8584 161.677 43.6936 161.348 43.5384C161.018 43.3833 160.732 43.1603 160.49 42.8694C160.247 42.5785 160.126 42.2101 160.126 41.764C160.126 41.1144 160.383 40.5908 160.897 40.1932C161.411 39.786 162.172 39.5824 163.18 39.5824C163.791 39.5824 164.45 39.7036 165.158 39.946C165.401 40.0333 165.662 40.1545 165.944 40.3096L165.289 41.4731H165.144C164.969 41.3471 164.804 41.2501 164.649 41.1823C164.242 40.9883 163.801 40.8914 163.326 40.8914C162.948 40.8914 162.657 40.9641 162.453 41.1095C162.259 41.2453 162.162 41.415 162.162 41.6186C162.162 41.8416 162.278 42.021 162.511 42.1567C162.754 42.2925 163.132 42.4428 163.646 42.6076C164.16 42.7724 164.586 42.9373 164.926 43.1021C165.265 43.2573 165.556 43.4803 165.798 43.7712C166.041 44.062 166.162 44.4305 166.162 44.8765C166.162 45.5747 165.9 46.1273 165.376 46.5346C164.853 46.9418 164.048 47.1454 162.962 47.1454Z" fill="#040D5F"/>
</g>
<g filter="url(#filter6_d)">
<rect x="38" y="250" width="56" height="49" fill="url(#paint2_linear)"/>
<rect x="38.5" y="250.5" width="55" height="48" stroke="black"/>
</g>
<g filter="url(#filter7_d)">
<rect x="116" y="250" width="54" height="8" rx="4" fill="url(#paint3_linear)"/>
</g>
<g filter="url(#filter8_d)">
<rect x="116" y="271" width="54" height="8" rx="4" fill="#C4C4C4"/>
</g>
<g filter="url(#filter9_d)">
<rect x="116" y="292" width="54" height="8" rx="4" fill="#C4C4C4"/>
</g>
<path d="M66.6727 117.74C67.0813 117.368 67.1114 116.736 66.7399 116.327L60.6859 109.668C60.3144 109.259 59.6819 109.229 59.2733 109.601C58.8646 109.972 58.8345 110.605 59.206 111.013L64.5874 116.933L58.6679 122.314C58.2592 122.686 58.2291 123.318 58.6006 123.727C58.9721 124.135 59.6046 124.166 60.0132 123.794L66.6727 117.74ZM44.9524 116.999L65.9524 117.999L66.0476 116.001L45.0476 115.001L44.9524 116.999Z" fill="#9A9494"/>
<path d="M145.133 182.089C144.6 182.089 144.147 182.009 143.773 181.849C143.596 181.778 143.441 181.695 143.311 181.6L143.711 180.889H143.8C143.859 180.948 143.96 181.016 144.102 181.093C144.375 181.224 144.689 181.289 145.044 181.289C145.844 181.289 146.244 180.889 146.244 180.089C146.244 179.289 145.844 178.889 145.044 178.889H143.924L143.578 178.525V175.778H147.169V176.489H144.822V178.089H145.178C145.948 178.089 146.526 178.264 146.911 178.614C147.296 178.957 147.489 179.449 147.489 180.089C147.489 180.723 147.29 181.215 146.893 181.564C146.502 181.914 145.915 182.089 145.133 182.089ZM150.511 182.089C149.812 182.089 149.258 181.828 148.849 181.307C148.446 180.785 148.244 179.979 148.244 178.889C148.244 177.799 148.446 176.993 148.849 176.472C149.258 175.95 149.812 175.689 150.511 175.689C151.21 175.689 151.761 175.953 152.164 176.48C152.573 177.002 152.777 177.805 152.777 178.889C152.777 179.973 152.573 180.779 152.164 181.307C151.761 181.828 151.21 182.089 150.511 182.089ZM150.511 181.289C151.192 181.289 151.533 180.489 151.533 178.889C151.533 177.289 151.192 176.489 150.511 176.489C149.829 176.489 149.489 177.289 149.489 178.889C149.489 180.489 149.829 181.289 150.511 181.289ZM155.936 182.089C155.237 182.089 154.683 181.828 154.274 181.307C153.871 180.785 153.669 179.979 153.669 178.889C153.669 177.799 153.871 176.993 154.274 176.472C154.683 175.95 155.237 175.689 155.936 175.689C156.635 175.689 157.186 175.953 157.589 176.48C157.998 177.002 158.202 177.805 158.202 178.889C158.202 179.973 157.998 180.779 157.589 181.307C157.186 181.828 156.635 182.089 155.936 182.089ZM155.936 181.289C156.617 181.289 156.958 180.489 156.958 178.889C156.958 177.289 156.617 176.489 155.936 176.489C155.254 176.489 154.914 177.289 154.914 178.889C154.914 180.489 155.254 181.289 155.936 181.289ZM161.361 182.089C160.662 182.089 160.108 181.828 159.699 181.307C159.296 180.785 159.094 179.979 159.094 178.889C159.094 177.799 159.296 176.993 159.699 176.472C160.108 175.95 160.662 175.689 161.361 175.689C162.06 175.689 162.611 175.953 163.014 176.48C163.423 177.002 163.627 177.805 163.627 178.889C163.627 179.973 163.423 180.779 163.014 181.307C162.611 181.828 162.06 182.089 161.361 182.089ZM161.361 181.289C162.042 181.289 162.383 180.489 162.383 178.889C162.383 177.289 162.042 176.489 161.361 176.489C160.679 176.489 160.339 177.289 160.339 178.889C160.339 180.489 160.679 181.289 161.361 181.289ZM164.697 177.556H165.586L165.675 178.089H165.719C165.778 178 165.879 177.897 166.021 177.778C166.3 177.571 166.599 177.467 166.919 177.467C167.452 177.467 167.882 177.666 168.208 178.063C168.534 178.454 168.697 179.025 168.697 179.778C168.697 180.536 168.528 181.111 168.19 181.502C167.858 181.893 167.405 182.089 166.83 182.089C166.587 182.089 166.371 182.044 166.181 181.956C166.087 181.92 166.007 181.876 165.941 181.822V183.422L165.586 183.778H164.697V177.556ZM166.608 181.289C166.875 181.289 167.082 181.173 167.23 180.942C167.378 180.711 167.452 180.323 167.452 179.778C167.452 179.262 167.381 178.889 167.239 178.658C167.103 178.427 166.922 178.311 166.697 178.311C166.501 178.311 166.315 178.4 166.137 178.578C166.078 178.649 166.012 178.738 165.941 178.845V181.022C166.007 181.076 166.069 181.12 166.128 181.156C166.27 181.245 166.43 181.289 166.608 181.289ZM170.384 179.734L169.095 177.556H170.384L171.006 178.711C171.03 178.765 171.047 178.812 171.059 178.854C171.077 178.895 171.092 178.931 171.104 178.96L171.121 179.067H171.157L171.175 178.96C171.181 178.937 171.19 178.901 171.201 178.854C171.219 178.8 171.243 178.753 171.273 178.711L171.895 177.556H173.183L171.895 179.734L173.228 182H171.939L171.273 180.8C171.243 180.753 171.219 180.705 171.201 180.658C171.19 180.61 171.181 180.578 171.175 180.56C171.163 180.513 171.157 180.474 171.157 180.445H171.121C171.121 180.474 171.116 180.513 171.104 180.56C171.092 180.608 171.059 180.688 171.006 180.8L170.339 182H169.05L170.384 179.734Z" fill="#59F4D8" fill-opacity="0.5"/>
<path d="M146.133 87.0889C145.6 87.0889 145.147 87.0089 144.773 86.8489C144.596 86.7778 144.441 86.6948 144.311 86.6L144.711 85.889H144.8C144.859 85.9482 144.96 86.0164 145.102 86.0934C145.375 86.2238 145.689 86.2889 146.044 86.2889C146.844 86.2889 147.244 85.889 147.244 85.089C147.244 84.2891 146.844 83.8891 146.044 83.8891H144.924L144.578 83.5247V80.7782H148.169V81.4893H145.822V83.0892H146.178C146.948 83.0892 147.526 83.264 147.911 83.6136C148.296 83.9573 148.489 84.4491 148.489 85.089C148.489 85.7231 148.29 86.2149 147.893 86.5645C147.502 86.9141 146.915 87.0889 146.133 87.0889ZM151.511 87.0889C150.812 87.0889 150.258 86.8282 149.849 86.3067C149.446 85.7853 149.244 84.9794 149.244 83.8891C149.244 82.7988 149.446 81.993 149.849 81.4715C150.258 80.9501 150.812 80.6894 151.511 80.6894C152.21 80.6894 152.761 80.953 153.164 81.4804C153.573 82.0019 153.777 82.8048 153.777 83.8891C153.777 84.9735 153.573 85.7794 153.164 86.3067C152.761 86.8282 152.21 87.0889 151.511 87.0889ZM151.511 86.2889C152.192 86.2889 152.533 85.489 152.533 83.8891C152.533 82.2892 152.192 81.4893 151.511 81.4893C150.829 81.4893 150.489 82.2892 150.489 83.8891C150.489 85.489 150.829 86.2889 151.511 86.2889ZM156.936 87.0889C156.237 87.0889 155.683 86.8282 155.274 86.3067C154.871 85.7853 154.669 84.9794 154.669 83.8891C154.669 82.7988 154.871 81.993 155.274 81.4715C155.683 80.9501 156.237 80.6894 156.936 80.6894C157.635 80.6894 158.186 80.953 158.589 81.4804C158.998 82.0019 159.202 82.8048 159.202 83.8891C159.202 84.9735 158.998 85.7794 158.589 86.3067C158.186 86.8282 157.635 87.0889 156.936 87.0889ZM156.936 86.2889C157.617 86.2889 157.958 85.489 157.958 83.8891C157.958 82.2892 157.617 81.4893 156.936 81.4893C156.254 81.4893 155.914 82.2892 155.914 83.8891C155.914 85.489 156.254 86.2889 156.936 86.2889ZM162.361 87.0889C161.662 87.0889 161.108 86.8282 160.699 86.3067C160.296 85.7853 160.094 84.9794 160.094 83.8891C160.094 82.7988 160.296 81.993 160.699 81.4715C161.108 80.9501 161.662 80.6894 162.361 80.6894C163.06 80.6894 163.611 80.953 164.014 81.4804C164.423 82.0019 164.627 82.8048 164.627 83.8891C164.627 84.9735 164.423 85.7794 164.014 86.3067C163.611 86.8282 163.06 87.0889 162.361 87.0889ZM162.361 86.2889C163.042 86.2889 163.383 85.489 163.383 83.8891C163.383 82.2892 163.042 81.4893 162.361 81.4893C161.679 81.4893 161.339 82.2892 161.339 83.8891C161.339 85.489 161.679 86.2889 162.361 86.2889ZM165.697 82.5559H166.586L166.675 83.0892H166.719C166.778 83.0003 166.879 82.8966 167.021 82.7781C167.3 82.5707 167.599 82.467 167.919 82.467C168.452 82.467 168.882 82.6655 169.208 83.0625C169.534 83.4536 169.697 84.0254 169.697 84.7779C169.697 85.5364 169.528 86.1112 169.19 86.5023C168.858 86.8933 168.405 87.0889 167.83 87.0889C167.587 87.0889 167.371 87.0444 167.181 86.9556C167.087 86.92 167.007 86.8756 166.941 86.8222V88.4221L166.586 88.7776H165.697V82.5559ZM167.608 86.2889C167.875 86.2889 168.082 86.1734 168.23 85.9423C168.378 85.7112 168.452 85.3231 168.452 84.7779C168.452 84.2624 168.381 83.8891 168.239 83.658C168.103 83.4269 167.922 83.3114 167.697 83.3114C167.501 83.3114 167.315 83.4003 167.137 83.578C167.078 83.6491 167.012 83.738 166.941 83.8447V86.0223C167.007 86.0756 167.069 86.1201 167.128 86.1556C167.27 86.2445 167.43 86.2889 167.608 86.2889ZM171.384 84.7335L170.095 82.5559H171.384L172.006 83.7114C172.03 83.7647 172.047 83.8121 172.059 83.8536C172.077 83.895 172.092 83.9306 172.104 83.9602L172.121 84.0669H172.157L172.175 83.9602C172.181 83.9365 172.19 83.901 172.201 83.8536C172.219 83.8002 172.243 83.7528 172.273 83.7114L172.895 82.5559H174.183L172.895 84.7335L174.228 87H172.939L172.273 85.8001C172.243 85.7527 172.219 85.7053 172.201 85.6579C172.19 85.6105 172.181 85.5779 172.175 85.5601C172.163 85.5127 172.157 85.4742 172.157 85.4446H172.121C172.121 85.4742 172.116 85.5127 172.104 85.5601C172.092 85.6075 172.059 85.6875 172.006 85.8001L171.339 87H170.05L171.384 84.7335Z" fill="#E859F4" fill-opacity="0.5"/>
<path d="M22.1332 111.089C21.5999 111.089 21.1466 111.009 20.7733 110.849C20.5955 110.778 20.4414 110.695 20.3111 110.6L20.7111 109.889H20.7999C20.8592 109.948 20.9599 110.016 21.1021 110.093C21.3747 110.224 21.6888 110.289 22.0443 110.289C22.8442 110.289 23.2442 109.889 23.2442 109.089C23.2442 108.289 22.8442 107.889 22.0443 107.889H20.9244L20.5777 107.525V104.778H24.1686V105.489H21.8221V107.089H22.1776C22.9479 107.089 23.5257 107.264 23.9108 107.614C24.296 107.957 24.4886 108.449 24.4886 109.089C24.4886 109.723 24.29 110.215 23.893 110.564C23.502 110.914 22.9153 111.089 22.1332 111.089ZM27.5109 111.089C26.8117 111.089 26.2577 110.828 25.8488 110.307C25.4459 109.785 25.2444 108.979 25.2444 107.889C25.2444 106.799 25.4459 105.993 25.8488 105.472C26.2577 104.95 26.8117 104.689 27.5109 104.689C28.2101 104.689 28.7612 104.953 29.1641 105.48C29.573 106.002 29.7774 106.805 29.7774 107.889C29.7774 108.973 29.573 109.779 29.1641 110.307C28.7612 110.828 28.2101 111.089 27.5109 111.089ZM27.5109 110.289C28.1923 110.289 28.533 109.489 28.533 107.889C28.533 106.289 28.1923 105.489 27.5109 105.489C26.8295 105.489 26.4887 106.289 26.4887 107.889C26.4887 109.489 26.8295 110.289 27.5109 110.289ZM32.9358 111.089C32.2366 111.089 31.6826 110.828 31.2737 110.307C30.8708 109.785 30.6693 108.979 30.6693 107.889C30.6693 106.799 30.8708 105.993 31.2737 105.472C31.6826 104.95 32.2366 104.689 32.9358 104.689C33.635 104.689 34.1861 104.953 34.589 105.48C34.9979 106.002 35.2023 106.805 35.2023 107.889C35.2023 108.973 34.9979 109.779 34.589 110.307C34.1861 110.828 33.635 111.089 32.9358 111.089ZM32.9358 110.289C33.6173 110.289 33.958 109.489 33.958 107.889C33.958 106.289 33.6173 105.489 32.9358 105.489C32.2544 105.489 31.9137 106.289 31.9137 107.889C31.9137 109.489 32.2544 110.289 32.9358 110.289ZM38.3608 111.089C37.6616 111.089 37.1075 110.828 36.6987 110.307C36.2957 109.785 36.0943 108.979 36.0943 107.889C36.0943 106.799 36.2957 105.993 36.6987 105.472C37.1075 104.95 37.6616 104.689 38.3608 104.689C39.06 104.689 39.611 104.953 40.014 105.48C40.4228 106.002 40.6273 106.805 40.6273 107.889C40.6273 108.973 40.4228 109.779 40.014 110.307C39.611 110.828 39.06 111.089 38.3608 111.089ZM38.3608 110.289C39.0422 110.289 39.3829 109.489 39.3829 107.889C39.3829 106.289 39.0422 105.489 38.3608 105.489C37.6793 105.489 37.3386 106.289 37.3386 107.889C37.3386 109.489 37.6793 110.289 38.3608 110.289ZM41.697 106.556H42.5858L42.6747 107.089H42.7191C42.7784 107 42.8791 106.897 43.0213 106.778C43.2998 106.571 43.5991 106.467 43.919 106.467C44.4523 106.467 44.8819 106.666 45.2078 107.063C45.5337 107.454 45.6967 108.025 45.6967 108.778C45.6967 109.536 45.5278 110.111 45.1901 110.502C44.8582 110.893 44.4049 111.089 43.8302 111.089C43.5872 111.089 43.3709 111.044 43.1813 110.956C43.0865 110.92 43.0065 110.876 42.9413 110.822V112.422L42.5858 112.778H41.697V106.556ZM43.6079 110.289C43.8746 110.289 44.082 110.173 44.2301 109.942C44.3783 109.711 44.4523 109.323 44.4523 108.778C44.4523 108.262 44.3812 107.889 44.239 107.658C44.1027 107.427 43.922 107.311 43.6968 107.311C43.5013 107.311 43.3146 107.4 43.1369 107.578C43.0776 107.649 43.0124 107.738 42.9413 107.845V110.022C43.0065 110.076 43.0687 110.12 43.128 110.156C43.2702 110.245 43.4302 110.289 43.6079 110.289ZM47.3837 108.734L46.0949 106.556H47.3837L48.0059 107.711C48.0296 107.765 48.0474 107.812 48.0592 107.854C48.077 107.895 48.0918 107.931 48.1037 107.96L48.1214 108.067H48.157L48.1748 107.96C48.1807 107.937 48.1896 107.901 48.2014 107.854C48.2192 107.8 48.2429 107.753 48.2725 107.711L48.8947 106.556H50.1835L48.8947 108.734L50.2279 111H48.9391L48.2725 109.8C48.2429 109.753 48.2192 109.705 48.2014 109.658C48.1896 109.61 48.1807 109.578 48.1748 109.56C48.1629 109.513 48.157 109.474 48.157 109.445H48.1214C48.1214 109.474 48.1155 109.513 48.1037 109.56C48.0918 109.608 48.0592 109.688 48.0059 109.8L47.3393 111H46.0505L47.3837 108.734Z" fill="#59F4D8" fill-opacity="0.5"/>
<defs>
<filter id="filter0_bd" x="-40" y="-44" width="279" height="443" filterUnits="userSpaceOnUse" color-interpolation-filters="sRGB">
<feFlood flood-opacity="0" result="BackgroundImageFix"/>
<feGaussianBlur in="BackgroundImage" stdDeviation="22"/>
<feComposite in2="SourceAlpha" operator="in" result="effect1_backgroundBlur"/>
<feColorMatrix in="SourceAlpha" type="matrix" values="0 0 0 0 0 0 0 0 0 0 0 0 0 0 0 0 0 0 127 0"/>
<feOffset dy="4"/>
<feGaussianBlur stdDeviation="2"/>
<feColorMatrix type="matrix" values="0 0 0 0 0 0 0 0 0 0 0 0 0 0 0 0 0 0 0.25 0"/>
<feBlend mode="normal" in2="effect1_backgroundBlur" result="effect2_dropShadow"/>
<feBlend mode="normal" in="SourceGraphic" in2="effect2_dropShadow" result="shape"/>
</filter>
<filter id="filter1_d" x="142" y="96" width="25" height="50.5" filterUnits="userSpaceOnUse" color-interpolation-filters="sRGB">
<feFlood flood-opacity="0" result="BackgroundImageFix"/>
<feColorMatrix in="SourceAlpha" type="matrix" values="0 0 0 0 0 0 0 0 0 0 0 0 0 0 0 0 0 0 127 0"/>
<feOffset dy="1"/>
<feGaussianBlur stdDeviation="2"/>
<feColorMatrix type="matrix" values="0 0 0 0 0 0 0 0 0 0 0 0 0 0 0 0 0 0 0.25 0"/>
<feBlend mode="normal" in2="BackgroundImageFix" result="effect1_dropShadow"/>
<feBlend mode="normal" in="SourceGraphic" in2="effect1_dropShadow" result="shape"/>
</filter>
<filter id="filter2_d" x="61.5" y="165" width="76" height="25" filterUnits="userSpaceOnUse" color-interpolation-filters="sRGB">
<feFlood flood-opacity="0" result="BackgroundImageFix"/>
<feColorMatrix in="SourceAlpha" type="matrix" values="0 0 0 0 0 0 0 0 0 0 0 0 0 0 0 0 0 0 127 0"/>
<feOffset dy="1"/>
<feGaussianBlur stdDeviation="2"/>
<feColorMatrix type="matrix" values="0 0 0 0 0 0 0 0 0 0 0 0 0 0 0 0 0 0 0.25 0"/>
<feBlend mode="normal" in2="BackgroundImageFix" result="effect1_dropShadow"/>
<feBlend mode="normal" in="SourceGraphic" in2="effect1_dropShadow" result="shape"/>
</filter>
<filter id="filter3_d" x="16" y="202" width="167.5" height="12" filterUnits="userSpaceOnUse" color-interpolation-filters="sRGB">
<feFlood flood-opacity="0" result="BackgroundImageFix"/>
<feColorMatrix in="SourceAlpha" type="matrix" values="0 0 0 0 0 0 0 0 0 0 0 0 0 0 0 0 0 0 127 0"/>
<feOffset dy="4"/>
<feGaussianBlur stdDeviation="2"/>
<feColorMatrix type="matrix" values="0 0 0 0 0 0 0 0 0 0 0 0 0 0 0 0 0 0 0.25 0"/>
<feBlend mode="normal" in2="BackgroundImageFix" result="effect1_dropShadow"/>
<feBlend mode="normal" in="SourceGraphic" in2="effect1_dropShadow" result="shape"/>
</filter>
<filter id="filter4_d" x="50.5" y="96.5" width="87" height="70" filterUnits="userSpaceOnUse" color-interpolation-filters="sRGB">
<feFlood flood-opacity="0" result="BackgroundImageFix"/>
<feColorMatrix in="SourceAlpha" type="matrix" values="0 0 0 0 0 0 0 0 0 0 0 0 0 0 0 0 0 0 127 0"/>
<feOffset dy="4"/>
<feGaussianBlur stdDeviation="2"/>
<feColorMatrix type="matrix" values="0 0 0 0 0 0 0 0 0 0 0 0 0 0 0 0 0 0 0.25 0"/>
<feBlend mode="normal" in2="BackgroundImageFix" result="effect1_dropShadow"/>
<feBlend mode="normal" in="SourceGraphic" in2="effect1_dropShadow" result="shape"/>
</filter>
<filter id="filter5_d" x="26.4655" y="36.6008" width="143.467" height="20.9951" filterUnits="userSpaceOnUse" color-interpolation-filters="sRGB">
<feFlood flood-opacity="0" result="BackgroundImageFix"/>
<feColorMatrix in="SourceAlpha" type="matrix" values="0 0 0 0 0 0 0 0 0 0 0 0 0 0 0 0 0 0 127 0"/>
<feOffset dy="3.77076"/>
<feGaussianBlur stdDeviation="1.88538"/>
<feColorMatrix type="matrix" values="0 0 0 0 0 0 0 0 0 0 0 0 0 0 0 0 0 0 0.25 0"/>
<feBlend mode="normal" in2="BackgroundImageFix" result="effect1_dropShadow"/>
<feBlend mode="normal" in="SourceGraphic" in2="effect1_dropShadow" result="shape"/>
</filter>
<filter id="filter6_d" x="34" y="250" width="64" height="57" filterUnits="userSpaceOnUse" color-interpolation-filters="sRGB">
<feFlood flood-opacity="0" result="BackgroundImageFix"/>
<feColorMatrix in="SourceAlpha" type="matrix" values="0 0 0 0 0 0 0 0 0 0 0 0 0 0 0 0 0 0 127 0"/>
<feOffset dy="4"/>
<feGaussianBlur stdDeviation="2"/>
<feColorMatrix type="matrix" values="0 0 0 0 0 0 0 0 0 0 0 0 0 0 0 0 0 0 0.25 0"/>
<feBlend mode="normal" in2="BackgroundImageFix" result="effect1_dropShadow"/>
<feBlend mode="normal" in="SourceGraphic" in2="effect1_dropShadow" result="shape"/>
</filter>
<filter id="filter7_d" x="112" y="250" width="62" height="16" filterUnits="userSpaceOnUse" color-interpolation-filters="sRGB">
<feFlood flood-opacity="0" result="BackgroundImageFix"/>
<feColorMatrix in="SourceAlpha" type="matrix" values="0 0 0 0 0 0 0 0 0 0 0 0 0 0 0 0 0 0 127 0"/>
<feOffset dy="4"/>
<feGaussianBlur stdDeviation="2"/>
<feColorMatrix type="matrix" values="0 0 0 0 0 0 0 0 0 0 0 0 0 0 0 0 0 0 0.25 0"/>
<feBlend mode="normal" in2="BackgroundImageFix" result="effect1_dropShadow"/>
<feBlend mode="normal" in="SourceGraphic" in2="effect1_dropShadow" result="shape"/>
</filter>
<filter id="filter8_d" x="112" y="271" width="62" height="16" filterUnits="userSpaceOnUse" color-interpolation-filters="sRGB">
<feFlood flood-opacity="0" result="BackgroundImageFix"/>
<feColorMatrix in="SourceAlpha" type="matrix" values="0 0 0 0 0 0 0 0 0 0 0 0 0 0 0 0 0 0 127 0"/>
<feOffset dy="4"/>
<feGaussianBlur stdDeviation="2"/>
<feColorMatrix type="matrix" values="0 0 0 0 0 0 0 0 0 0 0 0 0 0 0 0 0 0 0.25 0"/>
<feBlend mode="normal" in2="BackgroundImageFix" result="effect1_dropShadow"/>
<feBlend mode="normal" in="SourceGraphic" in2="effect1_dropShadow" result="shape"/>
</filter>
<filter id="filter9_d" x="112" y="292" width="62" height="16" filterUnits="userSpaceOnUse" color-interpolation-filters="sRGB">
<feFlood flood-opacity="0" result="BackgroundImageFix"/>
<feColorMatrix in="SourceAlpha" type="matrix" values="0 0 0 0 0 0 0 0 0 0 0 0 0 0 0 0 0 0 127 0"/>
<feOffset dy="4"/>
<feGaussianBlur stdDeviation="2"/>
<feColorMatrix type="matrix" values="0 0 0 0 0 0 0 0 0 0 0 0 0 0 0 0 0 0 0.25 0"/>
<feBlend mode="normal" in2="BackgroundImageFix" result="effect1_dropShadow"/>
<feBlend mode="normal" in="SourceGraphic" in2="effect1_dropShadow" result="shape"/>
</filter>
<linearGradient id="paint0_linear" x1="135" y1="168.5" x2="12" y2="33.5" gradientUnits="userSpaceOnUse">
<stop offset="0.379327" stop-color="#F6FAFF"/>
<stop offset="1" stop-color="#EBEDEE" stop-opacity="0.77"/>
</linearGradient>
<linearGradient id="paint1_linear" x1="20" y1="18" x2="99.5" y2="355" gradientUnits="userSpaceOnUse">
<stop stop-color="#DE34CD"/>
<stop offset="1" stop-color="#BFCD1A" stop-opacity="0.87"/>
</linearGradient>
<linearGradient id="paint2_linear" x1="44.5" y1="254" x2="90.5" y2="294" gradientUnits="userSpaceOnUse">
<stop stop-color="#C833B9"/>
<stop offset="0.604167" stop-color="#5821DD" stop-opacity="0.40625"/>
<stop offset="1" stop-color="#2C51D3" stop-opacity="0"/>
</linearGradient>
<linearGradient id="paint3_linear" x1="131" y1="254" x2="170" y2="254" gradientUnits="userSpaceOnUse">
<stop stop-color="#3AD895"/>
<stop offset="1" stop-color="#38BD85" stop-opacity="0.32"/>
</linearGradient>
</defs>
</svg>
