<svg width="453" height="453" viewBox="0 0 453 453" fill="none" xmlns="http://www.w3.org/2000/svg">
<rect width="453" height="453" fill="#262C43"/>
<g filter="url(#filter0_d)">
<path d="M103.299 52.0676H107.897C113.486 52.0676 116.281 55.223 116.281 61.5338C116.281 67.8446 113.486 71 107.897 71H103.299V52.0676ZM107.897 68.5658C108.925 68.5658 109.772 68.3495 110.439 67.9167C111.124 67.484 111.638 66.7537 111.981 65.726C112.323 64.6982 112.495 63.3008 112.495 61.5338C112.495 59.7668 112.323 58.3694 111.981 57.3416C111.638 56.3138 111.124 55.5836 110.439 55.1509C109.772 54.7181 108.925 54.5017 107.897 54.5017H107.085V68.5658H107.897ZM121.426 55.7188C120.885 55.7188 120.408 55.5205 119.993 55.1238C119.596 54.7091 119.398 54.2313 119.398 53.6904C119.398 53.1494 119.596 52.6806 119.993 52.2839C120.408 51.8692 120.885 51.6619 121.426 51.6619C121.967 51.6619 122.436 51.8692 122.833 52.2839C123.247 52.6806 123.455 53.1494 123.455 53.6904C123.455 54.2313 123.247 54.7091 122.833 55.1238C122.436 55.5205 121.967 55.7188 121.426 55.7188ZM119.533 71V57.4768H123.32V71H119.533ZM132.117 76.6797C130.909 76.6797 129.764 76.4543 128.682 76.0036C128.267 75.8413 127.835 75.6159 127.384 75.3274L128.601 73.1637H128.871C129.106 73.362 129.367 73.5424 129.656 73.7046C130.287 74.0653 131.017 74.2456 131.847 74.2456C132.73 74.2456 133.424 73.9841 133.929 73.4612C134.434 72.9564 134.686 72.2261 134.686 71.2705V70.4591C134.434 70.6394 134.182 70.7746 133.929 70.8648C133.28 71.1352 132.631 71.2705 131.982 71.2705C130.233 71.2705 128.844 70.6754 127.817 69.4854C126.807 68.2954 126.302 66.5464 126.302 64.2384C126.302 61.9485 126.798 60.2085 127.79 59.0185C128.781 57.8104 130.089 57.2064 131.711 57.2064C132.685 57.2064 133.596 57.5219 134.443 58.153C134.804 58.4595 135.11 58.7751 135.363 59.0996H135.498L135.768 57.4768H138.473V71.2705C138.473 72.3163 138.22 73.2448 137.716 74.0562C137.211 74.8857 136.48 75.5258 135.525 75.9765C134.569 76.4453 133.433 76.6797 132.117 76.6797ZM132.658 68.8363C133.199 68.8363 133.686 68.7011 134.118 68.4306C134.317 68.3224 134.506 68.1872 134.686 68.0249V61.3986C134.47 61.074 134.272 60.8035 134.091 60.5872C133.55 60.0462 132.982 59.7758 132.387 59.7758C131.702 59.7758 131.143 60.1274 130.711 60.8306C130.296 61.5338 130.089 62.6697 130.089 64.2384C130.089 65.8973 130.314 67.0783 130.765 67.7815C131.215 68.4847 131.847 68.8363 132.658 68.8363ZM144.141 55.7188C143.6 55.7188 143.122 55.5205 142.708 55.1238C142.311 54.7091 142.113 54.2313 142.113 53.6904C142.113 53.1494 142.311 52.6806 142.708 52.2839C143.122 51.8692 143.6 51.6619 144.141 51.6619C144.682 51.6619 145.151 51.8692 145.547 52.2839C145.962 52.6806 146.169 53.1494 146.169 53.6904C146.169 54.2313 145.962 54.7091 145.547 55.1238C145.151 55.5205 144.682 55.7188 144.141 55.7188ZM142.248 71V57.4768H146.034V71H142.248ZM155.102 71.2705C153.551 71.2705 152.325 70.8467 151.424 69.9993C150.54 69.1518 150.099 68.0429 150.099 66.6726V59.911H148.341V58.2882L152.398 54.2313H153.885V57.4768H156.995V59.911H153.885V66.6726C153.885 67.3938 154.02 67.9347 154.291 68.2954C154.561 68.656 154.922 68.8363 155.373 68.8363C155.914 68.8363 156.445 68.656 156.968 68.2954C157.203 68.1331 157.437 67.9528 157.672 67.7544H157.942L159.159 69.9181C158.69 70.2247 158.285 70.4501 157.942 70.5943C156.968 71.0451 156.022 71.2705 155.102 71.2705ZM165.246 71.2705C163.659 71.2705 162.424 70.8918 161.54 70.1345C160.675 69.3592 160.242 68.3404 160.242 67.0783C160.242 65.726 160.729 64.6712 161.703 63.9139C162.694 63.1385 164.236 62.7509 166.327 62.7509H168.221V62.3452C168.221 61.3895 168.013 60.7044 167.599 60.2897C167.184 59.8569 166.535 59.6405 165.651 59.6405C164.894 59.6405 164.2 59.8209 163.569 60.1815C163.316 60.3077 163.064 60.488 162.811 60.7224H162.541L161.324 58.5587C161.757 58.2702 162.18 58.0448 162.595 57.8825C163.767 57.4318 164.876 57.2064 165.922 57.2064C167.184 57.2064 168.275 57.4318 169.194 57.8825C170.114 58.3153 170.808 58.9193 171.277 59.6946C171.764 60.47 172.007 61.3535 172.007 62.3452V71H169.303L169.032 69.3772H168.897C168.59 69.7739 168.284 70.0894 167.977 70.3238C167.22 70.9549 166.309 71.2705 165.246 71.2705ZM165.922 68.7011C166.481 68.7011 167.031 68.4306 167.572 67.8897C167.824 67.6372 168.04 67.3668 168.221 67.0783V65.185H166.327C164.795 65.185 164.028 65.8161 164.028 67.0783C164.028 67.5651 164.191 67.9618 164.515 68.2683C164.858 68.5568 165.327 68.7011 165.922 68.7011ZM175.659 71V53.1494L176.741 52.0676H179.446V71H175.659ZM189.861 57.4768H193.377L195.27 64.9146C195.342 65.185 195.396 65.5006 195.432 65.8612L195.487 66.4021H195.595L195.649 65.8612C195.685 65.5186 195.739 65.2031 195.811 64.9146L197.921 57.4768H200.517L202.6 64.9146C202.672 65.185 202.726 65.5006 202.762 65.8612L202.816 66.4021H202.924L202.978 65.8612C203.014 65.5006 203.069 65.185 203.141 64.9146L205.034 57.4768H208.55L204.899 71H201.545L199.381 63.0213C199.309 62.7328 199.255 62.4173 199.219 62.0747L199.165 61.5338H199.057L199.003 62.0747C198.967 62.4173 198.912 62.7328 198.84 63.0213L196.677 71H193.512L189.861 57.4768ZM216.791 71.2705C212.283 71.2705 210.029 68.9264 210.029 64.2384C210.029 61.9305 210.552 60.1815 211.598 58.9914C212.644 57.8014 214.104 57.2064 215.98 57.2064C217.837 57.2064 219.288 57.7834 220.334 58.9373C221.398 60.0913 221.93 61.7682 221.93 63.968V64.6441L221.118 65.4555H213.816C213.816 67.7094 214.898 68.8363 217.061 68.8363C217.819 68.8363 218.513 68.656 219.144 68.2954C219.396 68.1692 219.649 67.9888 219.901 67.7544H220.172L221.389 69.9181C220.884 70.2247 220.451 70.4501 220.091 70.5943C219.009 71.0451 217.909 71.2705 216.791 71.2705ZM218.143 63.0213C218.143 61.9395 217.927 61.1101 217.494 60.5331C217.08 59.9381 216.575 59.6405 215.98 59.6405C215.385 59.6405 214.871 59.9381 214.438 60.5331C214.023 61.1101 213.816 61.9395 213.816 63.0213H218.143ZM231.654 71.2705C230.59 71.2705 229.679 70.9549 228.922 70.3238C228.543 70.0353 228.237 69.7198 228.003 69.3772H227.867L227.597 71H224.892V53.1494L225.974 52.0676H228.679V58.0178C228.859 57.8915 229.102 57.7563 229.409 57.6121C230.058 57.3416 230.716 57.2064 231.383 57.2064C233.132 57.2064 234.512 57.8014 235.521 58.9914C236.549 60.1815 237.063 61.9305 237.063 64.2384C237.063 66.5283 236.567 68.2773 235.576 69.4854C234.584 70.6754 233.277 71.2705 231.654 71.2705ZM230.978 68.7011C231.663 68.7011 232.213 68.3495 232.627 67.6463C233.06 66.9431 233.277 65.8071 233.277 64.2384C233.277 62.5796 233.051 61.3986 232.6 60.6954C232.15 59.9921 231.519 59.6405 230.707 59.6405C230.238 59.6405 229.752 59.7758 229.247 60.0462L228.679 60.4519V67.0783C228.895 67.4028 229.093 67.6733 229.274 67.8897C229.815 68.4306 230.383 68.7011 230.978 68.7011ZM251.245 71V54.5017H246.512V52.0676H259.765V54.5017H255.032V71H251.245ZM262.328 71V52.0676H266.115V68.5658H273.417V71H262.328ZM279.77 71.2705C278.183 71.2705 276.948 70.8918 276.065 70.1345C275.199 69.3592 274.766 68.3404 274.766 67.0783C274.766 65.726 275.253 64.6712 276.227 63.9139C277.218 63.1385 278.76 62.7509 280.852 62.7509H282.745V62.3452C282.745 61.3895 282.538 60.7044 282.123 60.2897C281.708 59.8569 281.059 59.6405 280.176 59.6405C279.418 59.6405 278.724 59.8209 278.093 60.1815C277.841 60.3077 277.588 60.488 277.336 60.7224H277.065L275.848 58.5587C276.281 58.2702 276.705 58.0448 277.119 57.8825C278.291 57.4318 279.4 57.2064 280.446 57.2064C281.708 57.2064 282.799 57.4318 283.719 57.8825C284.638 58.3153 285.332 58.9193 285.801 59.6946C286.288 60.47 286.531 61.3535 286.531 62.3452V71H283.827L283.556 69.3772H283.421C283.115 69.7739 282.808 70.0894 282.502 70.3238C281.744 70.9549 280.834 71.2705 279.77 71.2705ZM280.446 68.7011C281.005 68.7011 281.555 68.4306 282.096 67.8897C282.348 67.6372 282.565 67.3668 282.745 67.0783V65.185H280.852C279.319 65.185 278.553 65.8161 278.553 67.0783C278.553 67.5651 278.715 67.9618 279.04 68.2683C279.382 68.5568 279.851 68.7011 280.446 68.7011ZM292.618 64.1032L288.696 57.4768H292.618L294.511 60.9929C294.583 61.1551 294.637 61.2994 294.673 61.4256C294.728 61.5518 294.773 61.66 294.809 61.7502L294.863 62.0747H294.971L295.025 61.7502C295.043 61.678 295.07 61.5698 295.106 61.4256C295.16 61.2633 295.232 61.1191 295.323 60.9929L297.216 57.4768H301.138L297.216 64.1032L301.273 71H297.351L295.323 67.3487C295.232 67.2045 295.16 67.0603 295.106 66.916C295.07 66.7718 295.043 66.6726 295.025 66.6185C294.989 66.4742 294.971 66.357 294.971 66.2669H294.863C294.863 66.357 294.845 66.4742 294.809 66.6185C294.773 66.7627 294.673 67.0062 294.511 67.3487L292.483 71H288.561L292.618 64.1032ZM307.777 71.2705C306.154 71.2705 304.847 70.6754 303.855 69.4854C302.863 68.2773 302.367 66.5283 302.367 64.2384C302.367 61.9305 302.872 60.1815 303.882 58.9914C304.91 57.8014 306.298 57.2064 308.047 57.2064C308.426 57.2064 308.75 57.2424 309.021 57.3146C309.309 57.3867 309.634 57.4859 309.994 57.6121L310.752 58.0178V53.1494L311.833 52.0676H314.538V71H311.833L311.563 69.3772H311.428C311.121 69.7739 310.815 70.0894 310.508 70.3238C309.751 70.9549 308.84 71.2705 307.777 71.2705ZM308.453 68.7011C309.048 68.7011 309.616 68.4306 310.157 67.8897C310.337 67.6733 310.535 67.4028 310.752 67.0783V60.4519L310.184 60.0462C309.679 59.7758 309.192 59.6405 308.723 59.6405C307.912 59.6405 307.281 59.9921 306.83 60.6954C306.379 61.3986 306.154 62.5796 306.154 64.2384C306.154 65.8071 306.361 66.9431 306.776 67.6463C307.209 68.3495 307.768 68.7011 308.453 68.7011ZM324.263 71.2705C319.755 71.2705 317.502 68.9264 317.502 64.2384C317.502 61.9305 318.024 60.1815 319.07 58.9914C320.116 57.8014 321.577 57.2064 323.452 57.2064C325.309 57.2064 326.76 57.7834 327.806 58.9373C328.87 60.0913 329.402 61.7682 329.402 63.968V64.6441L328.591 65.4555H321.288C321.288 67.7094 322.37 68.8363 324.534 68.8363C325.291 68.8363 325.985 68.656 326.616 68.2954C326.869 68.1692 327.121 67.9888 327.374 67.7544H327.644L328.861 69.9181C328.356 70.2247 327.923 70.4501 327.563 70.5943C326.481 71.0451 325.381 71.2705 324.263 71.2705ZM325.615 63.0213C325.615 61.9395 325.399 61.1101 324.966 60.5331C324.552 59.9381 324.047 59.6405 323.452 59.6405C322.857 59.6405 322.343 59.9381 321.91 60.5331C321.495 61.1101 321.288 61.9395 321.288 63.0213H325.615ZM330.877 57.4768H334.447L336.881 65.8612C336.953 66.1317 337.007 66.4472 337.043 66.8078L337.098 67.3487H337.206L337.26 66.8078C337.296 66.4652 337.35 66.1497 337.422 65.8612L339.856 57.4768H343.345L338.883 71H335.339L330.877 57.4768ZM350.112 71.2705C348.688 71.2705 347.354 71.0451 346.11 70.5943C345.641 70.432 345.127 70.2066 344.568 69.9181L345.785 67.7544H346.056C346.398 67.9708 346.723 68.1511 347.029 68.2954C347.787 68.656 348.679 68.8363 349.707 68.8363C350.608 68.8363 351.257 68.7011 351.654 68.4306C352.069 68.1421 352.276 67.7725 352.276 67.3217C352.276 66.889 352.051 66.5464 351.6 66.2939C351.149 66.0415 350.455 65.771 349.517 65.4825C348.526 65.158 347.723 64.8515 347.11 64.563C346.497 64.2745 345.965 63.8598 345.515 63.3188C345.064 62.7779 344.838 62.0927 344.838 61.2633C344.838 60.0553 345.316 59.0816 346.272 58.3423C347.228 57.585 348.643 57.2064 350.518 57.2064C351.654 57.2064 352.88 57.4318 354.196 57.8825C354.647 58.0448 355.134 58.2702 355.657 58.5587L354.44 60.7224H354.169C353.845 60.488 353.538 60.3077 353.25 60.1815C352.493 59.8209 351.672 59.6405 350.789 59.6405C350.085 59.6405 349.545 59.7758 349.166 60.0462C348.805 60.2987 348.625 60.6142 348.625 60.9929C348.625 61.4076 348.841 61.7411 349.274 61.9936C349.725 62.246 350.428 62.5255 351.384 62.832C352.339 63.1385 353.133 63.4451 353.764 63.7516C354.395 64.0401 354.936 64.4548 355.387 64.9957C355.837 65.5366 356.063 66.2218 356.063 67.0512C356.063 68.3495 355.576 69.3772 354.602 70.1345C353.629 70.8918 352.132 71.2705 350.112 71.2705Z" fill="url(#paint0_linear)"/>
</g>
<g filter="url(#filter1_d)">
<path d="M197.05 195.359V123.256H216.62H279V195.359M197.05 195.359H213.832M197.05 195.359L180.333 202.562M197.05 195.359L169.599 209.59M279 195.359V209.59L216.62 239H211.727M279 195.359H266.667M279 195.359L263.821 201.781M211.727 239V223.82M211.727 239H131V223.82M211.727 223.82H202.154M211.727 223.82L242 211.013M131 223.82H142.147M131 223.82L180.333 202.562M202.154 223.82L266.667 195.359M202.154 223.82H190.769M266.667 195.359H246.744M246.744 195.359L190.769 223.82M246.744 195.359H230.615M190.769 223.82H175.59M175.59 223.82L230.615 195.359M175.59 223.82H153.295M230.615 195.359H213.832M213.832 195.359L153.295 223.82M153.295 223.82H142.147M142.147 223.82L169.599 209.59M263.821 201.781L180.333 202.562M263.821 201.781L242 211.013M242 211.013C240.482 211.655 193.1 210.332 169.599 209.59M202.154 128.949V185.872H270.462V128.949H202.154Z" stroke="url(#paint1_radial)" stroke-width="1.89744"/>
</g>
<g filter="url(#filter2_d)">
<path d="M313.588 117H330.794M348 117H330.794M330.794 117V222H309H348" stroke="#B5B5B5"/>
</g>
<g filter="url(#filter3_d)">
<path d="M282 256.941L282 275.471M282 294L282 275.471M282 275.471L128 275.471L128 252L128 294" stroke="#B5B5B5"/>
</g>
<path d="M163.176 172.744C163.583 172.374 163.61 171.742 163.236 171.331L157.153 164.636C156.78 164.225 156.148 164.192 155.741 164.561C155.335 164.931 155.307 165.563 155.681 165.974L161.088 171.925L155.197 177.278C154.79 177.647 154.763 178.28 155.136 178.691C155.51 179.101 156.142 179.135 156.549 178.765L163.176 172.744ZM114.052 170.435L162.457 172.999L162.543 171.001L114.137 168.436L114.052 170.435Z" fill="#9A9494"/>
<path d="M187.637 324.277C185.977 324.277 184.567 324.028 183.406 323.53C182.853 323.309 182.373 323.051 181.968 322.756L183.212 320.543H183.489C183.673 320.728 183.986 320.94 184.429 321.179C185.277 321.585 186.254 321.788 187.36 321.788C189.849 321.788 191.093 320.543 191.093 318.055C191.093 315.566 189.849 314.322 187.36 314.322H183.876L182.797 313.188V304.643H193.969V306.856H186.669V311.833H187.775C190.171 311.833 191.969 312.377 193.167 313.464C194.365 314.534 194.964 316.064 194.964 318.055C194.964 320.027 194.347 321.557 193.112 322.645C191.895 323.733 190.07 324.277 187.637 324.277ZM204.367 324.277C202.192 324.277 200.468 323.465 199.196 321.843C197.943 320.221 197.316 317.714 197.316 314.322C197.316 310.93 197.943 308.423 199.196 306.8C200.468 305.178 202.192 304.367 204.367 304.367C206.543 304.367 208.257 305.187 209.511 306.828C210.783 308.45 211.419 310.948 211.419 314.322C211.419 317.695 210.783 320.202 209.511 321.843C208.257 323.465 206.543 324.277 204.367 324.277ZM204.367 321.788C206.487 321.788 207.547 319.299 207.547 314.322C207.547 309.344 206.487 306.856 204.367 306.856C202.247 306.856 201.187 309.344 201.187 314.322C201.187 319.299 202.247 321.788 204.367 321.788ZM221.245 324.277C219.07 324.277 217.346 323.465 216.074 321.843C214.82 320.221 214.193 317.714 214.193 314.322C214.193 310.93 214.82 308.423 216.074 306.8C217.346 305.178 219.07 304.367 221.245 304.367C223.42 304.367 225.135 305.187 226.388 306.828C227.66 308.45 228.296 310.948 228.296 314.322C228.296 317.695 227.66 320.202 226.388 321.843C225.135 323.465 223.42 324.277 221.245 324.277ZM221.245 321.788C223.365 321.788 224.425 319.299 224.425 314.322C224.425 309.344 223.365 306.856 221.245 306.856C219.125 306.856 218.065 309.344 218.065 314.322C218.065 319.299 219.125 321.788 221.245 321.788ZM238.122 324.277C235.947 324.277 234.223 323.465 232.951 321.843C231.698 320.221 231.071 317.714 231.071 314.322C231.071 310.93 231.698 308.423 232.951 306.8C234.223 305.178 235.947 304.367 238.122 304.367C240.298 304.367 242.012 305.187 243.266 306.828C244.538 308.45 245.174 310.948 245.174 314.322C245.174 317.695 244.538 320.202 243.266 321.843C242.012 323.465 240.298 324.277 238.122 324.277ZM238.122 321.788C240.242 321.788 241.302 319.299 241.302 314.322C241.302 309.344 240.242 306.856 238.122 306.856C236.002 306.856 234.942 309.344 234.942 314.322C234.942 319.299 236.002 321.788 238.122 321.788ZM248.502 310.174H251.267L251.543 311.833H251.682C251.866 311.556 252.179 311.234 252.622 310.865C253.488 310.22 254.419 309.897 255.415 309.897C257.074 309.897 258.41 310.515 259.424 311.75C260.438 312.967 260.945 314.746 260.945 317.087C260.945 319.447 260.42 321.235 259.369 322.451C258.337 323.668 256.926 324.277 255.138 324.277C254.382 324.277 253.71 324.138 253.12 323.862C252.825 323.751 252.576 323.613 252.373 323.447V328.424L251.267 329.53H248.502V310.174ZM254.447 321.788C255.277 321.788 255.922 321.428 256.383 320.709C256.843 319.99 257.074 318.783 257.074 317.087C257.074 315.483 256.853 314.322 256.41 313.603C255.986 312.884 255.424 312.524 254.723 312.524C254.115 312.524 253.534 312.801 252.981 313.354C252.797 313.575 252.594 313.852 252.373 314.183V320.958C252.576 321.124 252.769 321.262 252.954 321.373C253.396 321.65 253.894 321.788 254.447 321.788ZM266.194 316.949L262.184 310.174H266.194L268.129 313.769C268.203 313.935 268.258 314.082 268.295 314.211C268.351 314.34 268.397 314.451 268.434 314.543L268.489 314.875H268.599L268.655 314.543C268.673 314.469 268.701 314.359 268.738 314.211C268.793 314.045 268.867 313.898 268.959 313.769L270.895 310.174H274.904L270.895 316.949L275.042 324H271.033L268.959 320.267C268.867 320.119 268.793 319.972 268.738 319.825C268.701 319.677 268.673 319.576 268.655 319.52C268.618 319.373 268.599 319.253 268.599 319.161H268.489C268.489 319.253 268.47 319.373 268.434 319.52C268.397 319.668 268.295 319.917 268.129 320.267L266.055 324H262.046L266.194 316.949Z" fill="#59F4D8" fill-opacity="0.5"/>
<path d="M341.181 152.216C339.885 152.216 338.785 152.022 337.878 151.633C337.446 151.46 337.072 151.259 336.755 151.029L337.727 149.302H337.943C338.087 149.446 338.331 149.611 338.677 149.798C339.339 150.115 340.101 150.273 340.965 150.273C342.907 150.273 343.879 149.302 343.879 147.359C343.879 145.416 342.907 144.445 340.965 144.445H338.245L337.403 143.56V136.89H346.124V138.617H340.425V142.502H341.288C343.159 142.502 344.562 142.927 345.498 143.776C346.433 144.611 346.901 145.805 346.901 147.359C346.901 148.899 346.419 150.093 345.455 150.942C344.505 151.791 343.08 152.216 341.181 152.216ZM354.241 152.216C352.543 152.216 351.197 151.583 350.204 150.316C349.226 149.05 348.736 147.093 348.736 144.445C348.736 141.797 349.226 139.84 350.204 138.574C351.197 137.307 352.543 136.674 354.241 136.674C355.939 136.674 357.277 137.315 358.256 138.595C359.249 139.862 359.745 141.812 359.745 144.445C359.745 147.078 359.249 149.036 358.256 150.316C357.277 151.583 355.939 152.216 354.241 152.216ZM354.241 150.273C355.896 150.273 356.723 148.33 356.723 144.445C356.723 140.56 355.896 138.617 354.241 138.617C352.586 138.617 351.758 140.56 351.758 144.445C351.758 148.33 352.586 150.273 354.241 150.273ZM367.416 152.216C365.718 152.216 364.372 151.583 363.379 150.316C362.401 149.05 361.911 147.093 361.911 144.445C361.911 141.797 362.401 139.84 363.379 138.574C364.372 137.307 365.718 136.674 367.416 136.674C369.114 136.674 370.452 137.315 371.431 138.595C372.423 139.862 372.92 141.812 372.92 144.445C372.92 147.078 372.423 149.036 371.431 150.316C370.452 151.583 369.114 152.216 367.416 152.216ZM367.416 150.273C369.07 150.273 369.898 148.33 369.898 144.445C369.898 140.56 369.07 138.617 367.416 138.617C365.761 138.617 364.933 140.56 364.933 144.445C364.933 148.33 365.761 150.273 367.416 150.273ZM380.59 152.216C378.892 152.216 377.547 151.583 376.554 150.316C375.575 149.05 375.086 147.093 375.086 144.445C375.086 141.797 375.575 139.84 376.554 138.574C377.547 137.307 378.892 136.674 380.59 136.674C382.289 136.674 383.627 137.315 384.605 138.595C385.598 139.862 386.095 141.812 386.095 144.445C386.095 147.078 385.598 149.036 384.605 150.316C383.627 151.583 382.289 152.216 380.59 152.216ZM380.59 150.273C382.245 150.273 383.073 148.33 383.073 144.445C383.073 140.56 382.245 138.617 380.59 138.617C378.936 138.617 378.108 140.56 378.108 144.445C378.108 148.33 378.936 150.273 380.59 150.273ZM388.693 141.207H390.851L391.067 142.502H391.175C391.319 142.286 391.564 142.035 391.909 141.747C392.585 141.243 393.312 140.991 394.089 140.991C395.384 140.991 396.428 141.473 397.219 142.438C398.01 143.387 398.406 144.776 398.406 146.604C398.406 148.446 397.996 149.841 397.176 150.791C396.37 151.741 395.269 152.216 393.873 152.216C393.283 152.216 392.758 152.108 392.297 151.892C392.067 151.806 391.873 151.698 391.715 151.568V155.454L390.851 156.317H388.693V141.207ZM393.334 150.273C393.981 150.273 394.485 149.993 394.845 149.431C395.204 148.87 395.384 147.928 395.384 146.604C395.384 145.352 395.212 144.445 394.866 143.884C394.535 143.323 394.096 143.042 393.549 143.042C393.075 143.042 392.621 143.258 392.19 143.69C392.046 143.862 391.887 144.078 391.715 144.337V149.626C391.873 149.755 392.024 149.863 392.168 149.949C392.513 150.165 392.902 150.273 393.334 150.273ZM402.503 146.496L399.373 141.207H402.503L404.014 144.013C404.072 144.143 404.115 144.258 404.144 144.359C404.187 144.459 404.223 144.546 404.252 144.618L404.295 144.877H404.381L404.424 144.618C404.439 144.56 404.46 144.474 404.489 144.359C404.532 144.229 404.59 144.114 404.662 144.013L406.173 141.207H409.303L406.173 146.496L409.411 152H406.281L404.662 149.086C404.59 148.971 404.532 148.856 404.489 148.741C404.46 148.625 404.439 148.546 404.424 148.503C404.396 148.388 404.381 148.294 404.381 148.223H404.295C404.295 148.294 404.281 148.388 404.252 148.503C404.223 148.618 404.144 148.813 404.014 149.086L402.395 152H399.265L402.503 146.496Z" fill="#E859F4" fill-opacity="0.5"/>
<path d="M36.5791 176.232C35.1843 176.232 33.9987 176.023 33.0224 175.605C32.5575 175.419 32.1546 175.202 31.8136 174.954L32.8597 173.094H33.0922C33.2471 173.249 33.5106 173.427 33.8825 173.629C34.5954 173.97 35.4168 174.14 36.3466 174.14C38.4388 174.14 39.4848 173.094 39.4848 171.002C39.4848 168.91 38.4388 167.864 36.3466 167.864H33.4176L32.511 166.911V159.728H41.9024V161.587H35.7655V165.772H36.6953C38.71 165.772 40.221 166.229 41.2283 167.143C42.2356 168.042 42.7393 169.328 42.7393 171.002C42.7393 172.66 42.2201 173.947 41.1818 174.861C40.159 175.775 38.6247 176.232 36.5791 176.232ZM50.6439 176.232C48.8152 176.232 47.3662 175.551 46.2969 174.187C45.243 172.823 44.7161 170.715 44.7161 167.864C44.7161 165.012 45.243 162.905 46.2969 161.541C47.3662 160.177 48.8152 159.495 50.6439 159.495C52.4726 159.495 53.9138 160.185 54.9677 161.564C56.037 162.928 56.5716 165.028 56.5716 167.864C56.5716 170.7 56.037 172.808 54.9677 174.187C53.9138 175.551 52.4726 176.232 50.6439 176.232ZM50.6439 174.14C52.4261 174.14 53.3172 172.048 53.3172 167.864C53.3172 163.68 52.4261 161.587 50.6439 161.587C48.8617 161.587 47.9706 163.68 47.9706 167.864C47.9706 172.048 48.8617 174.14 50.6439 174.14ZM64.8322 176.232C63.0035 176.232 61.5545 175.551 60.4852 174.187C59.4313 172.823 58.9044 170.715 58.9044 167.864C58.9044 165.012 59.4313 162.905 60.4852 161.541C61.5545 160.177 63.0035 159.495 64.8322 159.495C66.6609 159.495 68.1021 160.185 69.156 161.564C70.2253 162.928 70.7599 165.028 70.7599 167.864C70.7599 170.7 70.2253 172.808 69.156 174.187C68.1021 175.551 66.6609 176.232 64.8322 176.232ZM64.8322 174.14C66.6144 174.14 67.5055 172.048 67.5055 167.864C67.5055 163.68 66.6144 161.587 64.8322 161.587C63.05 161.587 62.1589 163.68 62.1589 167.864C62.1589 172.048 63.05 174.14 64.8322 174.14ZM79.0205 176.232C77.1918 176.232 75.7428 175.551 74.6735 174.187C73.6196 172.823 73.0927 170.715 73.0927 167.864C73.0927 165.012 73.6196 162.905 74.6735 161.541C75.7428 160.177 77.1918 159.495 79.0205 159.495C80.8492 159.495 82.2904 160.185 83.3443 161.564C84.4136 162.928 84.9482 165.028 84.9482 167.864C84.9482 170.7 84.4136 172.808 83.3443 174.187C82.2904 175.551 80.8492 176.232 79.0205 176.232ZM79.0205 174.14C80.8027 174.14 81.6938 172.048 81.6938 167.864C81.6938 163.68 80.8027 161.587 79.0205 161.587C77.2383 161.587 76.3472 163.68 76.3472 167.864C76.3472 172.048 77.2383 174.14 79.0205 174.14ZM87.7459 164.377H90.0706L90.303 165.772H90.4192C90.5742 165.539 90.8377 165.268 91.2096 164.958C91.938 164.416 92.7206 164.144 93.5575 164.144C94.9522 164.144 96.0758 164.664 96.9282 165.702C97.7805 166.725 98.2067 168.22 98.2067 170.188C98.2067 172.172 97.765 173.675 96.8817 174.698C96.0138 175.721 94.8283 176.232 93.325 176.232C92.6896 176.232 92.124 176.116 91.628 175.884C91.3801 175.791 91.1709 175.675 91.0004 175.535V179.719L90.0706 180.649H87.7459V164.377ZM92.7439 174.14C93.4412 174.14 93.9837 173.838 94.3711 173.234C94.7585 172.629 94.9522 171.614 94.9522 170.188C94.9522 168.84 94.7663 167.864 94.3943 167.259C94.0379 166.655 93.5652 166.353 92.9763 166.353C92.4649 166.353 91.9767 166.585 91.5118 167.05C91.3568 167.236 91.1864 167.469 91.0004 167.748V173.443C91.1709 173.582 91.3336 173.699 91.4886 173.792C91.8605 174.024 92.2789 174.14 92.7439 174.14ZM102.619 170.072L99.2482 164.377H102.619L104.246 167.399C104.308 167.538 104.355 167.662 104.386 167.771C104.432 167.879 104.471 167.972 104.502 168.05L104.548 168.329H104.641L104.688 168.05C104.703 167.988 104.727 167.895 104.758 167.771C104.804 167.631 104.866 167.507 104.944 167.399L106.571 164.377H109.941L106.571 170.072L110.058 176H106.687L104.944 172.862C104.866 172.738 104.804 172.614 104.758 172.49C104.727 172.366 104.703 172.281 104.688 172.234C104.657 172.11 104.641 172.009 104.641 171.932H104.548C104.548 172.009 104.533 172.11 104.502 172.234C104.471 172.358 104.386 172.567 104.246 172.862L102.503 176H99.132L102.619 170.072Z" fill="#59F4D8" fill-opacity="0.5"/>
<g filter="url(#filter4_d)">
<rect x="141" y="372" width="56" height="49" fill="url(#paint2_linear)"/>
<rect x="141.5" y="372.5" width="55" height="48" stroke="black"/>
</g>
<g filter="url(#filter5_d)">
<rect x="245" y="371" width="54" height="8" rx="4" fill="url(#paint3_linear)"/>
</g>
<g filter="url(#filter6_d)">
<rect x="245" y="392" width="54" height="8" rx="4" fill="#C4C4C4"/>
</g>
<g filter="url(#filter7_d)">
<rect x="245" y="413" width="54" height="8" rx="4" fill="#C4C4C4"/>
</g>
<defs>
<filter id="filter0_d" x="96.2869" y="51.6619" width="266.788" height="39.0419" filterUnits="userSpaceOnUse" color-interpolation-filters="sRGB">
<feFlood flood-opacity="0" result="BackgroundImageFix"/>
<feColorMatrix in="SourceAlpha" type="matrix" values="0 0 0 0 0 0 0 0 0 0 0 0 0 0 0 0 0 0 127 0" result="hardAlpha"/>
<feOffset dy="7.01201"/>
<feGaussianBlur stdDeviation="3.506"/>
<feColorMatrix type="matrix" values="0 0 0 0 0 0 0 0 0 0 0 0 0 0 0 0 0 0 0.25 0"/>
<feBlend mode="normal" in2="BackgroundImageFix" result="effect1_dropShadow"/>
<feBlend mode="normal" in="SourceGraphic" in2="effect1_dropShadow" result="shape"/>
</filter>
<filter id="filter1_d" x="122.462" y="122.308" width="165.077" height="132.821" filterUnits="userSpaceOnUse" color-interpolation-filters="sRGB">
<feFlood flood-opacity="0" result="BackgroundImageFix"/>
<feColorMatrix in="SourceAlpha" type="matrix" values="0 0 0 0 0 0 0 0 0 0 0 0 0 0 0 0 0 0 127 0" result="hardAlpha"/>
<feOffset dy="7.58974"/>
<feGaussianBlur stdDeviation="3.79487"/>
<feColorMatrix type="matrix" values="0 0 0 0 0 0 0 0 0 0 0 0 0 0 0 0 0 0 0.25 0"/>
<feBlend mode="normal" in2="BackgroundImageFix" result="effect1_dropShadow"/>
<feBlend mode="normal" in="SourceGraphic" in2="effect1_dropShadow" result="shape"/>
</filter>
<filter id="filter2_d" x="305" y="113.5" width="47" height="114" filterUnits="userSpaceOnUse" color-interpolation-filters="sRGB">
<feFlood flood-opacity="0" result="BackgroundImageFix"/>
<feColorMatrix in="SourceAlpha" type="matrix" values="0 0 0 0 0 0 0 0 0 0 0 0 0 0 0 0 0 0 127 0" result="hardAlpha"/>
<feOffset dy="1"/>
<feGaussianBlur stdDeviation="2"/>
<feColorMatrix type="matrix" values="0 0 0 0 0 0 0 0 0 0 0 0 0 0 0 0 0 0 0.25 0"/>
<feBlend mode="normal" in2="BackgroundImageFix" result="effect1_dropShadow"/>
<feBlend mode="normal" in="SourceGraphic" in2="effect1_dropShadow" result="shape"/>
</filter>
<filter id="filter3_d" x="123.5" y="249" width="163" height="50" filterUnits="userSpaceOnUse" color-interpolation-filters="sRGB">
<feFlood flood-opacity="0" result="BackgroundImageFix"/>
<feColorMatrix in="SourceAlpha" type="matrix" values="0 0 0 0 0 0 0 0 0 0 0 0 0 0 0 0 0 0 127 0" result="hardAlpha"/>
<feOffset dy="1"/>
<feGaussianBlur stdDeviation="2"/>
<feColorMatrix type="matrix" values="0 0 0 0 0 0 0 0 0 0 0 0 0 0 0 0 0 0 0.25 0"/>
<feBlend mode="normal" in2="BackgroundImageFix" result="effect1_dropShadow"/>
<feBlend mode="normal" in="SourceGraphic" in2="effect1_dropShadow" result="shape"/>
</filter>
<filter id="filter4_d" x="137" y="372" width="64" height="57" filterUnits="userSpaceOnUse" color-interpolation-filters="sRGB">
<feFlood flood-opacity="0" result="BackgroundImageFix"/>
<feColorMatrix in="SourceAlpha" type="matrix" values="0 0 0 0 0 0 0 0 0 0 0 0 0 0 0 0 0 0 127 0" result="hardAlpha"/>
<feOffset dy="4"/>
<feGaussianBlur stdDeviation="2"/>
<feColorMatrix type="matrix" values="0 0 0 0 0 0 0 0 0 0 0 0 0 0 0 0 0 0 0.25 0"/>
<feBlend mode="normal" in2="BackgroundImageFix" result="effect1_dropShadow"/>
<feBlend mode="normal" in="SourceGraphic" in2="effect1_dropShadow" result="shape"/>
</filter>
<filter id="filter5_d" x="241" y="371" width="62" height="16" filterUnits="userSpaceOnUse" color-interpolation-filters="sRGB">
<feFlood flood-opacity="0" result="BackgroundImageFix"/>
<feColorMatrix in="SourceAlpha" type="matrix" values="0 0 0 0 0 0 0 0 0 0 0 0 0 0 0 0 0 0 127 0" result="hardAlpha"/>
<feOffset dy="4"/>
<feGaussianBlur stdDeviation="2"/>
<feColorMatrix type="matrix" values="0 0 0 0 0 0 0 0 0 0 0 0 0 0 0 0 0 0 0.25 0"/>
<feBlend mode="normal" in2="BackgroundImageFix" result="effect1_dropShadow"/>
<feBlend mode="normal" in="SourceGraphic" in2="effect1_dropShadow" result="shape"/>
</filter>
<filter id="filter6_d" x="241" y="392" width="62" height="16" filterUnits="userSpaceOnUse" color-interpolation-filters="sRGB">
<feFlood flood-opacity="0" result="BackgroundImageFix"/>
<feColorMatrix in="SourceAlpha" type="matrix" values="0 0 0 0 0 0 0 0 0 0 0 0 0 0 0 0 0 0 127 0" result="hardAlpha"/>
<feOffset dy="4"/>
<feGaussianBlur stdDeviation="2"/>
<feColorMatrix type="matrix" values="0 0 0 0 0 0 0 0 0 0 0 0 0 0 0 0 0 0 0.25 0"/>
<feBlend mode="normal" in2="BackgroundImageFix" result="effect1_dropShadow"/>
<feBlend mode="normal" in="SourceGraphic" in2="effect1_dropShadow" result="shape"/>
</filter>
<filter id="filter7_d" x="241" y="413" width="62" height="16" filterUnits="userSpaceOnUse" color-interpolation-filters="sRGB">
<feFlood flood-opacity="0" result="BackgroundImageFix"/>
<feColorMatrix in="SourceAlpha" type="matrix" values="0 0 0 0 0 0 0 0 0 0 0 0 0 0 0 0 0 0 127 0" result="hardAlpha"/>
<feOffset dy="4"/>
<feGaussianBlur stdDeviation="2"/>
<feColorMatrix type="matrix" values="0 0 0 0 0 0 0 0 0 0 0 0 0 0 0 0 0 0 0.25 0"/>
<feBlend mode="normal" in2="BackgroundImageFix" result="effect1_dropShadow"/>
<feBlend mode="normal" in="SourceGraphic" in2="effect1_dropShadow" result="shape"/>
</filter>
<linearGradient id="paint0_linear" x1="161" y1="71" x2="279.5" y2="111" gradientUnits="userSpaceOnUse">
<stop stop-color="#FAFF17"/>
<stop offset="1" stop-color="#EA00FE"/>
</linearGradient>
<radialGradient id="paint1_radial" cx="0" cy="0" r="1" gradientUnits="userSpaceOnUse" gradientTransform="translate(215.5 197) rotate(10.6539) scale(102.772 131.413)">
<stop offset="0.224679" stop-color="#57FEF4"/>
<stop offset="0.808457" stop-color="#FE39D3" stop-opacity="0.97913"/>
</radialGradient>
<linearGradient id="paint2_linear" x1="147.5" y1="376" x2="193.5" y2="416" gradientUnits="userSpaceOnUse">
<stop stop-color="#C833B9"/>
<stop offset="0.604167" stop-color="#5821DD" stop-opacity="0.40625"/>
<stop offset="1" stop-color="#2C51D3" stop-opacity="0"/>
</linearGradient>
<linearGradient id="paint3_linear" x1="260" y1="375" x2="299" y2="375" gradientUnits="userSpaceOnUse">
<stop stop-color="#3AD895"/>
<stop offset="1" stop-color="#38BD85" stop-opacity="0.32"/>
</linearGradient>
</defs>
</svg>
