<svg width="2181" height="1269" viewBox="0 0 2181 1269" fill="none" xmlns="http://www.w3.org/2000/svg">
<g filter="url(#filter0_f)">
<path d="M231.94 1231.97H1950.14C1968.68 1231.97 2013.55 1236.82 2050.37 1242.82C2087.18 1248.81 2099.75 1253.66 2078.44 1253.66H103.642C82.3351 1253.66 94.9049 1248.81 131.718 1242.82C168.53 1236.82 213.401 1231.97 231.94 1231.97Z" fill="black" fill-opacity="0.4"/>
</g>
<g filter="url(#filter1_dd)">
<path d="M207.146 85.2995C207.146 56.1419 207.146 41.5632 212.82 30.4264C217.811 20.6303 225.775 12.6658 235.57 7.67444C246.706 2 261.284 2 290.439 2H1890.56C1919.72 2 1934.29 2 1945.43 7.67444C1955.23 12.6658 1963.19 20.6303 1968.18 30.4264C1973.85 41.5632 1973.85 56.1419 1973.85 85.2995V1131.32C1973.85 1160.47 1973.85 1175.05 1968.18 1186.19C1963.19 1195.98 1955.23 1203.95 1945.43 1208.94C1934.29 1214.61 1919.72 1214.61 1890.56 1214.61H290.439C261.284 1214.61 246.706 1214.61 235.57 1208.94C225.775 1203.95 217.811 1195.98 212.82 1186.19C207.146 1175.05 207.146 1160.47 207.146 1131.32V85.2995Z" fill="#717576"/>
</g>
<path d="M211.484 82.6963C211.484 55.9685 211.484 42.6046 216.685 32.396C221.261 23.4162 228.561 16.1154 237.54 11.5399C247.747 6.33838 261.11 6.33838 287.836 6.33838H1893.16C1919.89 6.33838 1933.25 6.33838 1943.46 11.5399C1952.44 16.1154 1959.74 23.4162 1964.31 32.396C1969.52 42.6046 1969.52 55.9685 1969.52 82.6962V1133.92C1969.52 1160.65 1969.52 1174.01 1964.31 1184.22C1959.74 1193.2 1952.44 1200.5 1943.46 1205.07C1933.25 1210.28 1919.89 1210.28 1893.16 1210.28H287.836C261.11 1210.28 247.747 1210.28 237.54 1205.07C228.561 1200.5 221.261 1193.2 216.685 1184.22C211.484 1174.01 211.484 1160.65 211.484 1133.92V82.6963Z" fill="#262C2D"/>
<rect x="215.823" y="1148.45" width="1749.35" height="32.5388" fill="#262C2D"/>
<path fill-rule="evenodd" clip-rule="evenodd" d="M1090.5 50.8084C1093.79 50.8084 1096.47 48.1375 1096.47 44.8429C1096.47 41.5483 1093.79 38.8774 1090.5 38.8774C1087.21 38.8774 1084.54 41.5483 1084.54 44.8429C1084.54 48.1375 1087.21 50.8084 1090.5 50.8084Z" fill="#262C2D"/>
<path fill-rule="evenodd" clip-rule="evenodd" d="M1090.5 48.5713C1092.56 48.5713 1094.23 46.9021 1094.23 44.8429C1094.23 42.7838 1092.56 41.1145 1090.5 41.1145C1088.44 41.1145 1086.77 42.7838 1086.77 44.8429C1086.77 46.9021 1088.44 48.5713 1090.5 48.5713Z" fill="#121515"/>
<path opacity="0.4" fill-rule="evenodd" clip-rule="evenodd" d="M1090.5 44.0973C1090.91 44.0973 1091.25 43.7635 1091.25 43.3516C1091.25 42.9398 1090.91 42.606 1090.5 42.606C1090.09 42.606 1089.75 42.9398 1089.75 43.3516C1089.75 43.7635 1090.09 44.0973 1090.5 44.0973Z" fill="#636F73"/>
<path d="M0 1183.16C0 1181.96 0.971126 1180.99 2.16907 1180.99H1088.33C1089.53 1180.99 1090.5 1181.96 1090.5 1183.16V1214.61H0V1183.16Z" fill="url(#paint0_linear)"/>
<path d="M2180.46 1183.16C2180.46 1181.96 2179.49 1180.99 2178.29 1180.99H1092.13C1090.93 1180.99 1089.96 1181.96 1089.96 1183.16V1214.61H2180.46V1183.16Z" fill="url(#paint1_linear)"/>
<path d="M959.813 1204.85H1221.19C1234.96 1204.85 1246.13 1194.17 1246.13 1180.99H934.869C934.869 1194.17 946.037 1204.85 959.813 1204.85Z" fill="#ABAEB0"/>
<path d="M958.729 1204.85H1220.1C1233.88 1204.85 1245.05 1194.17 1245.05 1180.99H933.785C933.785 1194.17 944.953 1204.85 958.729 1204.85Z" fill="url(#paint2_linear)"/>
<path fill-rule="evenodd" clip-rule="evenodd" d="M1088.87 1214.61H0C0 1214.61 47.7195 1244.98 204.435 1244.98H1088.87H1091.04H1976.57C2133.28 1244.98 2181 1214.61 2181 1214.61H1091.04H1088.87Z" fill="url(#paint3_linear)"/>
<rect x="269" y="105" width="1642" height="1005" fill="#F8F2F2"/>
<path d="M383.675 829.393C384.007 835.699 382.182 840.346 378.198 843.333C374.547 846.653 370.232 848.312 365.253 848.312C360.274 848.312 355.627 846.653 351.312 843.333C346.997 840.346 344.674 835.699 344.342 829.393C340.691 776.284 338.533 723.342 337.869 670.565C337.205 617.457 335.712 564.349 333.388 511.24C328.741 503.938 328.409 496.967 332.392 490.329C332.061 486.678 331.729 483.358 331.397 480.371C331.397 477.052 331.231 473.567 330.899 469.915C330.567 463.941 332.226 459.46 335.878 456.472C339.529 453.153 343.678 451.327 348.325 450.996C353.304 450.664 357.951 451.991 362.266 454.979C366.581 457.634 369.236 461.783 370.232 467.426C375.875 464.771 381.186 462.281 386.165 459.958C391.475 457.634 396.952 455.311 402.595 452.987C407.242 450.996 412.387 449.17 418.03 447.51C423.672 445.519 429.481 444.025 435.456 443.029C441.43 442.034 447.239 441.536 452.882 441.536C458.857 441.536 464.333 442.531 469.312 444.523C479.27 448.506 487.402 454.481 493.709 462.447C500.348 470.413 505.824 479.209 510.139 488.835C514.123 498.129 517.94 507.589 521.591 517.215C525.242 526.509 527.234 536.135 527.566 546.093C527.898 556.382 526.404 566.008 523.085 574.97C519.765 583.932 515.118 592.065 509.144 599.367C503.501 606.669 496.696 613.142 488.73 618.785C480.764 624.428 472.3 629.24 463.338 633.224C453.712 637.539 443.754 641.356 433.464 644.675C423.175 647.994 412.719 650.152 402.097 651.148C397.45 651.812 392.969 651.646 388.654 650.65C384.671 649.654 380.854 648.326 377.203 646.667C377.866 677.536 378.53 708.073 379.194 738.279C380.19 768.484 381.684 798.855 383.675 829.393ZM373.219 510.245C373.883 525.513 374.381 540.782 374.713 556.051C375.045 570.987 375.543 586.09 376.207 601.359C378.198 602.686 380.19 604.014 382.182 605.342C384.173 606.337 386.331 607.499 388.654 608.827C391.309 610.487 393.467 611.482 395.127 611.814C396.786 611.814 399.442 611.482 403.093 610.818C410.395 609.159 417.698 607.499 425 605.84C432.303 603.848 439.273 601.193 445.912 597.873C452.218 594.886 458.193 591.733 463.836 588.413C469.478 584.762 474.623 580.115 479.27 574.472C482.258 570.821 484.581 566.672 486.241 562.025C487.9 557.046 488.398 551.735 487.734 546.093C487.402 539.454 485.743 532.65 482.755 525.679C480.1 518.709 477.445 512.236 474.789 506.261C473.13 503.274 471.47 500.287 469.81 497.299C468.483 493.98 466.823 490.993 464.831 488.337C461.844 485.35 459.521 483.524 457.861 482.861C448.567 482.197 440.435 482.695 433.464 484.354C426.494 486.014 419.523 488.337 412.553 491.325C405.914 493.98 399.276 496.967 392.637 500.287C385.999 503.606 379.526 506.925 373.219 510.245ZM572.376 483.358C572.708 477.052 575.031 472.405 579.346 469.418C583.661 466.098 588.308 464.439 593.287 464.439C598.266 464.439 602.581 466.098 606.232 469.418C610.215 472.405 612.041 477.052 611.709 483.358C611.709 485.35 611.543 487.508 611.211 489.831C611.211 491.823 611.211 493.814 611.211 495.806C621.833 490.495 632.952 486.014 644.57 482.363C656.519 478.38 668.303 475.89 679.92 474.894C691.87 473.899 703.321 474.894 714.275 477.882C725.56 480.537 735.85 485.848 745.144 493.814C749.791 498.129 751.782 502.776 751.119 507.755C750.787 512.734 748.795 517.049 745.144 520.7C741.825 524.02 737.51 526.177 732.199 527.173C726.888 527.837 721.743 526.177 716.764 522.194C713.113 519.207 708.964 517.049 704.317 515.721C700.002 514.394 695.189 513.896 689.878 514.228C684.899 514.228 679.754 514.726 674.443 515.721C669.464 516.717 664.652 517.879 660.005 519.207C642.412 524.849 625.982 532.318 610.713 541.612C611.377 557.876 612.373 574.141 613.701 590.405C615.028 604.014 616.19 618.121 617.186 632.726C618.182 646.999 621.003 660.608 625.65 673.553C627.642 679.527 627.144 684.506 624.156 688.489C621.501 692.805 617.684 695.626 612.705 696.954C608.058 698.281 603.079 697.949 597.768 695.958C592.789 693.966 589.304 689.983 587.312 684.008C584.657 676.374 582.831 668.574 581.836 660.608C580.84 652.641 579.844 644.675 578.848 636.709C578.184 629.074 577.355 621.44 576.359 613.806C575.695 605.84 575.031 598.039 574.367 590.405C572.708 572.481 571.546 554.723 570.882 537.131C570.55 519.207 571.048 501.283 572.376 483.358ZM775.017 681.021C777.673 665.089 780.66 649.488 783.979 634.219C787.631 618.619 790.286 602.852 791.946 586.92C793.273 571.319 793.439 556.051 792.443 541.114C791.78 525.845 792.775 510.411 795.431 494.81C796.095 489.499 799.082 485.516 804.393 482.861C810.036 480.205 815.181 479.541 819.827 480.869C825.47 482.529 829.287 485.682 831.279 490.329C833.602 494.976 834.432 499.955 833.768 505.266C832.441 512.9 831.777 520.7 831.777 528.667C832.109 536.633 832.441 544.599 832.773 552.565C832.773 567.834 831.777 583.103 829.785 598.371C827.794 614.304 825.138 629.904 821.819 645.173C818.832 660.442 816.01 675.876 813.355 691.477C812.359 696.788 809.206 700.771 803.895 703.426C798.584 706.082 793.605 706.745 788.958 705.418C783.315 703.758 779.332 700.605 777.009 695.958C774.685 691.311 774.022 686.332 775.017 681.021ZM798.916 451.991C796.593 451.327 794.269 450.332 791.946 449.004C789.622 447.344 787.962 445.353 786.967 443.029C785.971 440.374 785.141 438.05 784.477 436.059C783.813 434.067 783.481 431.744 783.481 429.088C783.481 426.101 783.979 423.114 784.975 420.126C786.303 414.152 788.958 409.837 792.941 407.181C794.269 405.19 796.095 403.696 798.418 402.7C802.069 400.377 806.218 399.215 810.865 399.215C815.512 398.883 819.662 400.045 823.313 402.7C824.972 404.028 826.632 405.522 828.292 407.181C829.951 408.509 831.279 410.334 832.275 412.658C832.939 414.318 833.602 416.143 834.266 418.135C835.262 420.126 835.594 422.118 835.262 424.109C834.93 426.433 834.598 428.59 834.266 430.582C833.934 432.574 833.105 434.399 831.777 436.059C830.117 438.382 828.79 440.042 827.794 441.038C826.798 442.034 825.138 443.361 822.815 445.021C821.487 446.349 819.496 447.344 816.84 448.008C809.87 451.991 803.895 453.319 798.916 451.991ZM921.397 613.806C918.742 605.176 916.252 596.38 913.929 587.418C911.937 578.456 909.614 569.66 906.958 561.029C903.307 546.757 897.83 532.484 890.528 518.211C886.877 510.908 883.226 503.606 879.574 496.304C875.923 488.669 873.268 480.869 871.608 472.903C870.28 466.596 871.276 461.451 874.595 457.468C878.247 453.153 882.396 450.332 887.043 449.004C891.69 447.676 896.337 448.008 900.984 450C905.631 451.991 908.618 456.14 909.946 462.447C911.605 470.413 914.261 477.882 917.912 484.852C921.895 491.823 925.712 498.959 929.363 506.261C933.015 513.896 936.168 521.696 938.823 529.662C941.479 537.629 943.968 545.595 946.292 553.561C948.947 562.191 951.271 571.153 953.262 580.447C955.586 589.409 958.241 598.205 961.228 606.835C962.224 610.155 963.22 613.474 964.216 616.793C965.543 619.781 966.871 622.934 968.199 626.253C971.518 616.627 974.174 608.329 976.165 601.359C978.157 594.056 980.48 587.086 983.136 580.447C986.787 570.489 990.272 560.697 993.591 551.072C996.911 541.114 999.898 530.99 1002.55 520.7C1005.21 511.074 1007.2 501.448 1008.53 491.823C1009.86 481.865 1011.85 472.073 1014.5 462.447C1016.16 456.472 1019.48 452.489 1024.46 450.498C1029.44 448.506 1034.25 448.174 1038.9 449.502C1043.55 450.83 1047.36 453.651 1050.35 457.966C1053.67 461.949 1054.5 466.928 1052.84 472.903C1049.52 483.856 1047.2 494.976 1045.87 506.261C1044.54 517.215 1042.22 528.003 1038.9 538.624C1035.91 549.246 1032.43 559.868 1028.44 570.489C1024.79 580.779 1021.14 591.235 1017.49 601.856C1015.17 609.159 1012.84 616.793 1010.52 624.759C1008.2 632.394 1005.37 639.862 1002.06 647.165C999.068 654.467 995.251 661.271 990.604 667.578C985.957 673.885 980.148 679.195 973.178 683.511C966.871 687.162 961.062 687.494 955.752 684.506C950.441 681.519 946.458 677.204 943.802 671.561C939.819 661.935 935.836 652.309 931.853 642.684C928.202 633.058 924.716 623.432 921.397 613.806ZM1122.05 672.557C1110.76 667.578 1101.8 660.774 1095.16 652.143C1088.85 643.181 1084.37 633.39 1081.72 622.768C1079.39 612.146 1078.73 601.193 1079.73 589.907C1080.72 578.29 1083.05 567.17 1086.7 556.548C1089.68 548.25 1093 539.62 1096.65 530.658C1100.64 521.696 1105.28 513.398 1110.6 505.764C1115.91 498.129 1122.21 491.657 1129.52 486.346C1136.82 480.703 1145.45 477.052 1155.41 475.392C1165.7 473.733 1175.99 473.235 1186.28 473.899C1196.9 474.23 1207.35 475.226 1217.64 476.886C1222.29 477.55 1226.77 478.711 1231.09 480.371C1235.4 481.699 1239.72 483.193 1244.03 484.852C1244.36 479.873 1246.52 475.724 1250.5 472.405C1254.82 469.086 1259.3 467.426 1263.95 467.426C1269.59 467.426 1274.07 469.418 1277.39 473.401C1281.04 477.052 1283.2 481.533 1283.86 486.844C1285.52 502.112 1286.19 517.381 1285.85 532.65C1285.85 547.918 1285.36 563.187 1284.36 578.456C1283.7 593.724 1283.03 608.993 1282.37 624.262C1282.04 639.53 1282.2 654.799 1282.87 670.067C1283.2 676.374 1281.21 681.187 1276.89 684.506C1272.91 687.494 1268.43 688.987 1263.45 688.987C1258.47 688.987 1253.82 687.494 1249.51 684.506C1245.52 681.187 1243.37 676.374 1243.03 670.067C1224.11 678.034 1204.03 682.681 1182.79 684.008C1161.55 685.004 1141.3 681.187 1122.05 672.557ZM1125.53 564.515C1123.54 570.489 1121.72 577.294 1120.06 584.928C1118.4 592.563 1117.9 599.865 1118.56 606.835C1119.23 613.806 1121.38 620.278 1125.03 626.253C1128.69 631.896 1134.66 635.879 1142.96 638.202C1159.89 643.513 1176.82 645.007 1193.74 642.684C1211 640.36 1227.1 634.385 1242.04 624.759C1243.37 608.495 1244.36 592.728 1245.03 577.46C1246.02 562.191 1246.35 546.757 1246.02 531.156C1240.38 527.505 1234.57 524.351 1228.6 521.696C1222.95 518.709 1216.65 516.717 1209.68 515.721C1202.71 514.726 1195.24 514.062 1187.27 513.73C1179.64 513.066 1172.17 513.066 1164.87 513.73C1164.2 513.73 1162.38 514.228 1159.39 515.223C1156.73 515.887 1155.24 516.385 1154.91 516.717C1151.59 518.377 1148.6 521.032 1145.95 524.683C1141.63 530.658 1137.81 537.131 1134.49 544.101C1131.18 550.74 1128.19 557.544 1125.53 564.515ZM1485.01 512.236C1491.32 512.236 1495.96 514.228 1498.95 518.211C1502.27 522.194 1503.93 526.675 1503.93 531.654C1503.93 536.633 1502.27 541.28 1498.95 545.595C1495.96 549.578 1491.32 551.57 1485.01 551.57C1477.04 551.901 1469.08 551.901 1461.11 551.57C1453.48 550.906 1445.84 550.242 1438.21 549.578C1438.54 575.8 1438.04 602.022 1436.71 628.245C1435.72 654.467 1433.06 680.523 1428.75 706.414C1428.08 712.056 1425.1 716.205 1419.79 718.861C1414.47 721.516 1409.33 722.014 1404.35 720.354C1398.71 718.695 1394.73 715.542 1392.4 710.895C1390.41 706.579 1389.91 701.601 1390.91 695.958C1394.89 670.731 1397.05 645.505 1397.38 620.278C1398.04 595.052 1398.04 569.66 1397.38 544.101C1384.77 542.11 1371.99 540.118 1359.04 538.126C1346.1 535.803 1333.32 533.811 1320.71 532.152C1315.06 531.488 1311.08 528.501 1308.76 523.19C1306.1 517.547 1305.44 512.402 1306.76 507.755C1308.42 502.112 1311.58 498.295 1316.22 496.304C1320.87 493.98 1325.85 493.15 1331.16 493.814C1342.11 495.474 1353.07 497.299 1364.02 499.291C1374.98 500.951 1386.1 502.61 1397.38 504.27C1397.05 502.61 1396.88 500.121 1396.88 496.802C1396.88 466.928 1396.72 437.387 1396.38 408.177C1396.38 378.967 1397.88 349.426 1400.87 319.552C1401.53 314.242 1403.52 309.595 1406.84 305.611C1410.49 301.628 1415.14 299.637 1420.78 299.637C1425.76 299.637 1430.41 301.628 1434.72 305.611C1439.37 309.595 1441.36 314.242 1440.7 319.552C1437.38 351.417 1435.72 383.116 1435.72 414.65C1436.05 445.851 1436.55 477.55 1437.21 509.747C1445.18 510.411 1453.14 511.074 1461.11 511.738C1469.08 512.07 1477.04 512.236 1485.01 512.236ZM1546.75 492.818C1553.05 484.188 1560.52 476.554 1569.15 469.915C1578.12 463.277 1587.57 458.132 1597.53 454.481C1607.49 450.498 1617.78 448.506 1628.4 448.506C1639.02 448.174 1649.65 450.166 1660.27 454.481C1670.56 458.464 1679.85 463.941 1688.15 470.911C1696.45 477.55 1702.92 486.18 1707.57 496.802C1711.22 504.768 1713.38 513.398 1714.04 522.692C1714.7 531.986 1712.21 540.45 1706.57 548.084C1701.59 555.055 1695.45 560.366 1688.15 564.017C1681.18 567.668 1673.54 570.323 1665.25 571.983C1657.28 573.643 1648.98 574.472 1640.35 574.472C1632.05 574.472 1624.09 574.307 1616.45 573.975C1607.82 573.643 1599.19 572.979 1590.56 571.983C1582.26 570.987 1573.8 569.991 1565.17 568.996C1567.83 583.932 1573.14 597.209 1581.1 608.827C1589.07 620.444 1599.86 629.24 1613.47 635.215C1617.12 636.543 1619.94 637.539 1621.93 638.202C1622.93 638.534 1623.76 638.866 1624.42 639.198C1625.41 639.198 1626.41 639.198 1627.41 639.198C1630.06 639.53 1632.22 639.862 1633.88 640.194C1635.87 640.194 1637.7 640.028 1639.36 639.696C1641.68 639.364 1643.17 639.198 1643.84 639.198C1644.83 638.866 1645.83 638.534 1646.82 638.202C1650.48 637.207 1653.63 636.045 1656.28 634.717C1659.27 633.39 1662.76 631.232 1666.74 628.245C1668.73 626.585 1671.39 624.096 1674.71 620.776C1678.03 617.457 1680.85 614.47 1683.17 611.814C1686.49 607.167 1690.47 604.014 1695.12 602.354C1700.1 600.695 1705.08 601.359 1710.06 604.346C1714.37 607.001 1717.36 611.15 1719.02 616.793C1721.01 622.104 1720.35 627.083 1717.03 631.73C1707.4 644.675 1695.95 655.795 1682.67 665.089C1669.73 674.051 1654.79 678.864 1637.86 679.527C1624.25 680.191 1611.14 677.868 1598.53 672.557C1585.92 666.914 1574.8 659.446 1565.17 650.152C1553.22 638.534 1543.76 625.091 1536.79 609.823C1529.82 594.554 1526 578.953 1525.34 563.021C1522.35 560.697 1520.03 557.876 1518.37 554.557C1517.04 550.906 1516.54 547.254 1516.87 543.603C1517.54 539.952 1518.87 536.633 1520.86 533.645C1522.85 530.326 1525.84 528.169 1529.82 527.173C1533.47 514.892 1539.11 503.44 1546.75 492.818ZM1666.24 504.768C1662.59 500.121 1656.95 495.972 1649.31 492.321C1643.01 489.665 1635.54 488.337 1626.91 488.337C1618.61 488.337 1611.47 489.831 1605.5 492.818C1597.86 496.47 1591.06 501.614 1585.09 508.253C1579.11 514.56 1574.3 521.696 1570.65 529.662C1578.61 530.658 1586.58 531.654 1594.55 532.65C1602.51 533.645 1610.48 534.309 1618.44 534.641C1622.76 534.641 1627.07 534.641 1631.39 534.641C1635.7 534.641 1640.02 534.475 1644.33 534.143C1645.66 534.143 1646.82 534.143 1647.82 534.143C1649.15 533.811 1650.48 533.645 1651.8 533.645C1654.79 532.982 1656.95 532.65 1658.28 532.65C1659.94 532.318 1661.59 531.82 1663.25 531.156C1664.58 530.824 1666.24 530.326 1668.23 529.662C1669.89 528.998 1670.89 528.501 1671.22 528.169C1671.55 527.837 1672.05 527.505 1672.71 527.173L1674.21 521.198C1673.54 519.87 1673.05 518.709 1672.71 517.713C1672.71 516.385 1672.38 515.223 1671.72 514.228C1671.39 513.232 1670.56 511.738 1669.23 509.747C1668.23 507.755 1667.24 506.095 1666.24 504.768Z" fill="black"/>
<defs>
<filter id="filter0_f" x="78.2695" y="1216.97" width="2025.54" height="51.6925" filterUnits="userSpaceOnUse" color-interpolation-filters="sRGB">
<feFlood flood-opacity="0" result="BackgroundImageFix"/>
<feBlend mode="normal" in="SourceGraphic" in2="BackgroundImageFix" result="shape"/>
<feGaussianBlur stdDeviation="7.5" result="effect1_foregroundBlur"/>
</filter>
<filter id="filter1_dd" x="203.146" y="0" width="1774.71" height="1220.61" filterUnits="userSpaceOnUse" color-interpolation-filters="sRGB">
<feFlood flood-opacity="0" result="BackgroundImageFix"/>
<feColorMatrix in="SourceAlpha" type="matrix" values="0 0 0 0 0 0 0 0 0 0 0 0 0 0 0 0 0 0 127 0"/>
<feOffset/>
<feGaussianBlur stdDeviation="1"/>
<feColorMatrix type="matrix" values="0 0 0 0 0 0 0 0 0 0.0823529 0 0 0 0 0.25098 0 0 0 0.14 0"/>
<feBlend mode="normal" in2="BackgroundImageFix" result="effect1_dropShadow"/>
<feColorMatrix in="SourceAlpha" type="matrix" values="0 0 0 0 0 0 0 0 0 0 0 0 0 0 0 0 0 0 127 0"/>
<feOffset dy="2"/>
<feGaussianBlur stdDeviation="2"/>
<feColorMatrix type="matrix" values="0 0 0 0 0 0 0 0 0 0.0823529 0 0 0 0 0.25098 0 0 0 0.05 0"/>
<feBlend mode="normal" in2="effect1_dropShadow" result="effect2_dropShadow"/>
<feBlend mode="normal" in="SourceGraphic" in2="effect2_dropShadow" result="shape"/>
</filter>
<linearGradient id="paint0_linear" x1="-1.87656e-06" y1="1198.34" x2="1090.5" y2="1198.34" gradientUnits="userSpaceOnUse">
<stop stop-color="#717576"/>
<stop offset="0.016907" stop-color="#9C9FA1"/>
<stop offset="0.0353058" stop-color="#9C9FA1"/>
<stop offset="0.0571855" stop-color="#797E82"/>
<stop offset="0.0979612" stop-color="#797E82"/>
<stop offset="0.151169" stop-color="#B2B5B7"/>
<stop offset="0.756906" stop-color="#CACDCF"/>
<stop offset="1" stop-color="#CACDCF"/>
</linearGradient>
<linearGradient id="paint1_linear" x1="2180.46" y1="1198.34" x2="1089.96" y2="1198.34" gradientUnits="userSpaceOnUse">
<stop stop-color="#717576"/>
<stop offset="0.016907" stop-color="#9C9FA1"/>
<stop offset="0.0353058" stop-color="#9C9FA1"/>
<stop offset="0.0571855" stop-color="#797E82"/>
<stop offset="0.0979612" stop-color="#797E82"/>
<stop offset="0.151169" stop-color="#B2B5B7"/>
<stop offset="0.756906" stop-color="#CACDCF"/>
<stop offset="1" stop-color="#CACDCF"/>
</linearGradient>
<linearGradient id="paint2_linear" x1="933.785" y1="1192.92" x2="1245.05" y2="1192.92" gradientUnits="userSpaceOnUse">
<stop stop-opacity="0.5"/>
<stop offset="0.139373" stop-color="#818487" stop-opacity="0"/>
<stop offset="0.860627" stop-color="#818487" stop-opacity="0"/>
<stop offset="1" stop-opacity="0.5"/>
</linearGradient>
<linearGradient id="paint3_linear" x1="1090.5" y1="1214.61" x2="1090.5" y2="1244.98" gradientUnits="userSpaceOnUse">
<stop stop-color="#838688"/>
<stop offset="1" stop-color="#17191B"/>
</linearGradient>
</defs>
</svg>
