<svg width="2189" height="1269" viewBox="0 0 2189 1269" fill="none" xmlns="http://www.w3.org/2000/svg">
<g filter="url(#filter0_d)">
<g filter="url(#filter1_f)">
<path d="M235.94 1231.97H1954.14C1972.68 1231.97 2017.55 1236.82 2054.37 1242.82C2091.18 1248.81 2103.75 1253.66 2082.44 1253.66H107.642C86.3351 1253.66 98.9049 1248.81 135.718 1242.82C172.53 1236.82 217.401 1231.97 235.94 1231.97Z" fill="black" fill-opacity="0.4"/>
</g>
<g filter="url(#filter2_dd)">
<path d="M211.146 85.2995C211.146 56.1419 211.146 41.5632 216.82 30.4264C221.811 20.6303 229.775 12.6658 239.57 7.67444C250.706 2 265.284 2 294.439 2H1894.56C1923.72 2 1938.29 2 1949.43 7.67444C1959.23 12.6658 1967.19 20.6303 1972.18 30.4264C1977.85 41.5632 1977.85 56.1419 1977.85 85.2995V1131.32C1977.85 1160.47 1977.85 1175.05 1972.18 1186.19C1967.19 1195.98 1959.23 1203.95 1949.43 1208.94C1938.29 1214.61 1923.72 1214.61 1894.56 1214.61H294.439C265.284 1214.61 250.706 1214.61 239.57 1208.94C229.775 1203.95 221.811 1195.98 216.82 1186.19C211.146 1175.05 211.146 1160.47 211.146 1131.32V85.2995Z" fill="#717576"/>
</g>
<path d="M215.484 82.6963C215.484 55.9685 215.484 42.6046 220.685 32.396C225.261 23.4162 232.561 16.1154 241.54 11.5399C251.747 6.33838 265.11 6.33838 291.836 6.33838H1897.16C1923.89 6.33838 1937.25 6.33838 1947.46 11.5399C1956.44 16.1154 1963.74 23.4162 1968.31 32.396C1973.52 42.6046 1973.52 55.9685 1973.52 82.6962V1133.92C1973.52 1160.65 1973.52 1174.01 1968.31 1184.22C1963.74 1193.2 1956.44 1200.5 1947.46 1205.07C1937.25 1210.28 1923.89 1210.28 1897.16 1210.28H291.836C265.11 1210.28 251.747 1210.28 241.54 1205.07C232.561 1200.5 225.261 1193.2 220.685 1184.22C215.484 1174.01 215.484 1160.65 215.484 1133.92V82.6963Z" fill="#262C2D"/>
<rect x="219.823" y="1148.45" width="1749.35" height="32.5388" fill="#262C2D"/>
<path fill-rule="evenodd" clip-rule="evenodd" d="M1094.5 50.8084C1097.79 50.8084 1100.47 48.1375 1100.47 44.8429C1100.47 41.5483 1097.79 38.8774 1094.5 38.8774C1091.21 38.8774 1088.54 41.5483 1088.54 44.8429C1088.54 48.1375 1091.21 50.8084 1094.5 50.8084Z" fill="#262C2D"/>
<path fill-rule="evenodd" clip-rule="evenodd" d="M1094.5 48.5713C1096.56 48.5713 1098.23 46.9021 1098.23 44.8429C1098.23 42.7838 1096.56 41.1145 1094.5 41.1145C1092.44 41.1145 1090.77 42.7838 1090.77 44.8429C1090.77 46.9021 1092.44 48.5713 1094.5 48.5713Z" fill="#121515"/>
<path opacity="0.4" fill-rule="evenodd" clip-rule="evenodd" d="M1094.5 44.0973C1094.91 44.0973 1095.25 43.7635 1095.25 43.3516C1095.25 42.9398 1094.91 42.606 1094.5 42.606C1094.09 42.606 1093.75 42.9398 1093.75 43.3516C1093.75 43.7635 1094.09 44.0973 1094.5 44.0973Z" fill="#636F73"/>
<path d="M4 1183.16C4 1181.96 4.97113 1180.99 6.16907 1180.99H1092.33C1093.53 1180.99 1094.5 1181.96 1094.5 1183.16V1214.61H4V1183.16Z" fill="url(#paint0_linear)"/>
<path d="M2184.46 1183.16C2184.46 1181.96 2183.49 1180.99 2182.29 1180.99H1096.13C1094.93 1180.99 1093.96 1181.96 1093.96 1183.16V1214.61H2184.46V1183.16Z" fill="url(#paint1_linear)"/>
<path d="M963.813 1204.85H1225.19C1238.96 1204.85 1250.13 1194.17 1250.13 1180.99H938.869C938.869 1194.17 950.037 1204.85 963.813 1204.85Z" fill="#ABAEB0"/>
<path d="M962.729 1204.85H1224.1C1237.88 1204.85 1249.05 1194.17 1249.05 1180.99H937.785C937.785 1194.17 948.953 1204.85 962.729 1204.85Z" fill="url(#paint2_linear)"/>
<path fill-rule="evenodd" clip-rule="evenodd" d="M1092.87 1214.61H4C4 1214.61 51.7195 1244.98 208.435 1244.98H1092.87H1095.04H1980.57C2137.28 1244.98 2185 1214.61 2185 1214.61H1095.04H1092.87Z" fill="url(#paint3_linear)"/>
<rect x="273" y="105" width="1642" height="1005" fill="#262C43"/>
<path d="M441.791 305.376H450.323L451.492 341.065H440.622L441.791 305.376ZM451.775 294.436C451.775 296.017 451.232 297.315 450.146 298.33C449.06 299.345 447.691 299.853 446.039 299.853C444.387 299.853 443.018 299.345 441.932 298.33C440.846 297.315 440.303 296.017 440.303 294.436C440.303 292.854 440.823 291.556 441.861 290.541C442.923 289.526 444.316 289.019 446.039 289.019C447.762 289.019 449.143 289.526 450.182 290.541C451.244 291.556 451.775 292.854 451.775 294.436ZM460.839 328V276.45H478.895C485.15 276.45 489.894 277.654 493.128 280.061C496.362 282.445 497.979 285.95 497.979 290.577C497.979 293.102 497.33 295.333 496.031 297.268C494.733 299.18 492.928 300.585 490.614 301.481C493.258 302.142 495.335 303.476 496.846 305.482C498.38 307.489 499.147 309.943 499.147 312.847C499.147 317.803 497.566 321.556 494.403 324.105C491.24 326.655 486.732 327.953 480.878 328H460.839ZM471.46 305.553V319.467H480.559C483.061 319.467 485.009 318.877 486.401 317.697C487.817 316.493 488.525 314.841 488.525 312.74C488.525 308.02 486.083 305.624 481.197 305.553H471.46ZM471.46 298.047H479.32C484.678 297.953 487.357 295.817 487.357 291.639C487.357 289.302 486.673 287.626 485.304 286.611C483.958 285.573 481.822 285.053 478.895 285.053H471.46V298.047ZM517.275 328H507.007V289.691H517.275V328ZM506.405 279.778C506.405 278.244 506.913 276.981 507.928 275.99C508.966 274.998 510.371 274.503 512.141 274.503C513.887 274.503 515.28 274.998 516.319 275.99C517.357 276.981 517.876 278.244 517.876 279.778C517.876 281.336 517.345 282.61 516.283 283.602C515.245 284.593 513.864 285.089 512.141 285.089C510.418 285.089 509.025 284.593 507.963 283.602C506.924 282.61 506.405 281.336 506.405 279.778ZM543.368 328.708C537.751 328.708 533.172 326.985 529.631 323.539C526.114 320.093 524.356 315.502 524.356 309.766V308.775C524.356 304.928 525.099 301.493 526.586 298.472C528.073 295.427 530.174 293.09 532.888 291.462C535.626 289.81 538.742 288.983 542.235 288.983C547.475 288.983 551.594 290.636 554.592 293.94C557.613 297.245 559.124 301.93 559.124 307.996V312.174H534.729C535.06 314.676 536.051 316.682 537.703 318.193C539.379 319.703 541.492 320.459 544.041 320.459C547.983 320.459 551.063 319.031 553.282 316.175L558.309 321.804C556.775 323.976 554.698 325.675 552.078 326.902C549.458 328.106 546.555 328.708 543.368 328.708ZM542.2 297.268C540.17 297.268 538.518 297.953 537.243 299.322C535.992 300.691 535.19 302.65 534.836 305.199H549.068V304.385C549.021 302.119 548.408 300.372 547.227 299.145C546.047 297.894 544.371 297.268 542.2 297.268ZM574.383 289.691L574.702 294.117C577.44 290.695 581.11 288.983 585.713 288.983C589.773 288.983 592.794 290.175 594.777 292.559C596.759 294.943 597.774 298.507 597.822 303.252V328H587.589V303.5C587.589 301.328 587.117 299.758 586.173 298.791C585.229 297.799 583.659 297.304 581.464 297.304C578.585 297.304 576.425 298.531 574.985 300.986V328H564.753V289.691H574.383ZM640.131 309.2C640.131 315.337 638.821 320.128 636.201 323.574C633.581 326.997 629.922 328.708 625.225 328.708C621.071 328.708 617.755 327.115 615.276 323.928L614.816 328H605.611V273.617H615.843V293.126C618.203 290.364 621.307 288.983 625.154 288.983C629.828 288.983 633.486 290.706 636.13 294.153C638.797 297.575 640.131 302.402 640.131 308.633V309.2ZM629.899 308.456C629.899 304.585 629.285 301.765 628.058 299.994C626.83 298.201 625.001 297.304 622.57 297.304C619.313 297.304 617.07 298.637 615.843 301.304V316.422C617.094 319.113 619.36 320.459 622.641 320.459C625.945 320.459 628.117 318.83 629.155 315.573C629.651 314.015 629.899 311.643 629.899 308.456ZM664.1 328.708C658.483 328.708 653.903 326.985 650.363 323.539C646.846 320.093 645.088 315.502 645.088 309.766V308.775C645.088 304.928 645.831 301.493 647.318 298.472C648.805 295.427 650.906 293.09 653.62 291.462C656.358 289.81 659.474 288.983 662.967 288.983C668.207 288.983 672.326 290.636 675.324 293.94C678.345 297.245 679.856 301.93 679.856 307.996V312.174H655.461C655.792 314.676 656.783 316.682 658.435 318.193C660.111 319.703 662.224 320.459 664.773 320.459C668.715 320.459 671.795 319.031 674.014 316.175L679.041 321.804C677.507 323.976 675.43 325.675 672.81 326.902C670.19 328.106 667.287 328.708 664.1 328.708ZM662.932 297.268C660.902 297.268 659.25 297.953 657.975 299.322C656.724 300.691 655.922 302.65 655.568 305.199H669.8V304.385C669.753 302.119 669.14 300.372 667.959 299.145C666.779 297.894 665.103 297.268 662.932 297.268ZM695.115 289.691L695.434 294.117C698.172 290.695 701.842 288.983 706.445 288.983C710.505 288.983 713.526 290.175 715.509 292.559C717.491 294.943 718.506 298.507 718.554 303.252V328H708.321V303.5C708.321 301.328 707.849 299.758 706.905 298.791C705.961 297.799 704.391 297.304 702.196 297.304C699.317 297.304 697.157 298.531 695.717 300.986V328H685.485V289.691H695.115ZM737.141 328H726.874V289.691H737.141V328ZM726.272 279.778C726.272 278.244 726.779 276.981 727.794 275.99C728.833 274.998 730.237 274.503 732.008 274.503C733.754 274.503 735.147 274.998 736.185 275.99C737.224 276.981 737.743 278.244 737.743 279.778C737.743 281.336 737.212 282.61 736.15 283.602C735.111 284.593 733.731 285.089 732.008 285.089C730.284 285.089 728.892 284.593 727.83 283.602C726.791 282.61 726.272 281.336 726.272 279.778ZM744.01 308.563C744.01 302.591 745.344 297.835 748.011 294.294C750.702 290.754 754.372 288.983 759.022 288.983C762.751 288.983 765.831 290.376 768.263 293.161V273.617H778.53V328H769.289L768.794 323.928C766.244 327.115 762.964 328.708 758.951 328.708C754.443 328.708 750.82 326.938 748.082 323.397C745.367 319.833 744.01 314.888 744.01 308.563ZM754.242 309.306C754.242 312.894 754.868 315.644 756.119 317.555C757.37 319.467 759.187 320.423 761.571 320.423C764.734 320.423 766.964 319.09 768.263 316.422V301.304C766.988 298.637 764.781 297.304 761.642 297.304C756.709 297.304 754.242 301.304 754.242 309.306ZM784.868 308.492C784.868 304.692 785.599 301.304 787.063 298.33C788.526 295.356 790.627 293.055 793.365 291.426C796.127 289.798 799.325 288.983 802.96 288.983C808.129 288.983 812.342 290.565 815.599 293.728C818.88 296.891 820.71 301.186 821.087 306.615L821.158 309.235C821.158 315.112 819.518 319.833 816.237 323.397C812.956 326.938 808.554 328.708 803.031 328.708C797.507 328.708 793.093 326.938 789.789 323.397C786.508 319.857 784.868 315.042 784.868 308.952V308.492ZM795.1 309.235C795.1 312.87 795.784 315.655 797.153 317.591C798.522 319.503 800.481 320.459 803.031 320.459C805.509 320.459 807.444 319.515 808.837 317.626C810.23 315.714 810.926 312.67 810.926 308.492C810.926 304.928 810.23 302.166 808.837 300.207C807.444 298.248 805.485 297.268 802.96 297.268C800.458 297.268 798.522 298.248 797.153 300.207C795.784 302.142 795.1 305.152 795.1 309.235ZM867.716 328C867.244 327.079 866.902 325.935 866.689 324.566C864.211 327.327 860.989 328.708 857.024 328.708C853.271 328.708 850.155 327.622 847.677 325.451C845.222 323.279 843.994 320.541 843.994 317.237C843.994 313.177 845.493 310.061 848.491 307.89C851.512 305.718 855.867 304.621 861.555 304.597H866.264V302.402C866.264 300.632 865.804 299.216 864.884 298.153C863.987 297.091 862.559 296.56 860.599 296.56C858.876 296.56 857.519 296.973 856.528 297.799C855.56 298.625 855.076 299.758 855.076 301.198H844.844C844.844 298.979 845.529 296.926 846.898 295.038C848.267 293.149 850.202 291.674 852.704 290.612C855.206 289.526 858.015 288.983 861.131 288.983C865.851 288.983 869.592 290.175 872.354 292.559C875.139 294.92 876.532 298.248 876.532 302.544V319.149C876.555 322.784 877.063 325.533 878.054 327.398V328H867.716ZM859.254 320.884C860.765 320.884 862.157 320.553 863.432 319.892C864.706 319.208 865.651 318.299 866.264 317.166V310.581H862.441C857.319 310.581 854.592 312.351 854.262 315.891L854.227 316.493C854.227 317.768 854.675 318.818 855.572 319.644C856.469 320.47 857.696 320.884 859.254 320.884Z" fill="white"/>
<path d="M903.121 328V276.45H918.983C923.515 276.45 927.563 277.477 931.127 279.53C934.715 281.56 937.512 284.463 939.518 288.24C941.524 291.993 942.527 296.265 942.527 301.057V303.429C942.527 308.22 941.536 312.481 939.553 316.21C937.594 319.939 934.821 322.831 931.233 324.884C927.645 326.938 923.597 327.976 919.089 328H903.121ZM913.743 285.053V319.467H918.877C923.031 319.467 926.205 318.11 928.401 315.396C930.596 312.681 931.717 308.799 931.764 303.747V301.021C931.764 295.781 930.678 291.816 928.507 289.125C926.335 286.411 923.161 285.053 918.983 285.053H913.743ZM960.407 328H950.139V289.691H960.407V328ZM949.538 279.778C949.538 278.244 950.045 276.981 951.06 275.99C952.099 274.998 953.503 274.503 955.273 274.503C957.02 274.503 958.412 274.998 959.451 275.99C960.49 276.981 961.009 278.244 961.009 279.778C961.009 281.336 960.478 282.61 959.416 283.602C958.377 284.593 956.996 285.089 955.273 285.089C953.55 285.089 952.158 284.593 951.095 283.602C950.057 282.61 949.538 281.336 949.538 279.778ZM967.382 308.563C967.382 302.685 968.774 297.953 971.56 294.365C974.368 290.777 978.145 288.983 982.889 288.983C987.091 288.983 990.36 290.423 992.697 293.303L993.121 289.691H1002.4V326.725C1002.4 330.077 1001.63 332.992 1000.1 335.471C998.586 337.949 996.45 339.837 993.688 341.135C990.926 342.434 987.693 343.083 983.987 343.083C981.178 343.083 978.44 342.516 975.773 341.383C973.106 340.274 971.088 338.834 969.719 337.064L974.25 330.832C976.8 333.688 979.892 335.116 983.527 335.116C986.241 335.116 988.354 334.385 989.864 332.921C991.375 331.482 992.13 329.428 992.13 326.761V324.707C989.77 327.375 986.666 328.708 982.819 328.708C978.216 328.708 974.486 326.914 971.63 323.327C968.798 319.715 967.382 314.935 967.382 308.987V308.563ZM977.614 309.306C977.614 312.776 978.31 315.502 979.703 317.485C981.095 319.444 983.007 320.423 985.438 320.423C988.554 320.423 990.785 319.255 992.13 316.918V300.809C990.761 298.472 988.554 297.304 985.509 297.304C983.055 297.304 981.119 298.307 979.703 300.313C978.31 302.319 977.614 305.317 977.614 309.306ZM1021.09 328H1010.82V289.691H1021.09V328ZM1010.22 279.778C1010.22 278.244 1010.73 276.981 1011.74 275.99C1012.78 274.998 1014.19 274.503 1015.96 274.503C1017.7 274.503 1019.1 274.998 1020.14 275.99C1021.17 276.981 1021.69 278.244 1021.69 279.778C1021.69 281.336 1021.16 282.61 1020.1 283.602C1019.06 284.593 1017.68 285.089 1015.96 285.089C1014.23 285.089 1012.84 284.593 1011.78 283.602C1010.74 282.61 1010.22 281.336 1010.22 279.778ZM1041.8 280.274V289.691H1048.35V297.197H1041.8V316.316C1041.8 317.732 1042.08 318.747 1042.62 319.361C1043.16 319.975 1044.2 320.282 1045.73 320.282C1046.87 320.282 1047.87 320.199 1048.74 320.034V327.788C1046.74 328.401 1044.67 328.708 1042.55 328.708C1035.37 328.708 1031.71 325.085 1031.57 317.839V297.197H1025.98V289.691H1031.57V280.274H1041.8ZM1076.25 328C1075.78 327.079 1075.44 325.935 1075.23 324.566C1072.75 327.327 1069.53 328.708 1065.56 328.708C1061.81 328.708 1058.69 327.622 1056.21 325.451C1053.76 323.279 1052.53 320.541 1052.53 317.237C1052.53 313.177 1054.03 310.061 1057.03 307.89C1060.05 305.718 1064.4 304.621 1070.09 304.597H1074.8V302.402C1074.8 300.632 1074.34 299.216 1073.42 298.153C1072.52 297.091 1071.1 296.56 1069.14 296.56C1067.41 296.56 1066.06 296.973 1065.06 297.799C1064.1 298.625 1063.61 299.758 1063.61 301.198H1053.38C1053.38 298.979 1054.07 296.926 1055.43 295.038C1056.8 293.149 1058.74 291.674 1061.24 290.612C1063.74 289.526 1066.55 288.983 1069.67 288.983C1074.39 288.983 1078.13 290.175 1080.89 292.559C1083.68 294.92 1085.07 298.248 1085.07 302.544V319.149C1085.09 322.784 1085.6 325.533 1086.59 327.398V328H1076.25ZM1067.79 320.884C1069.3 320.884 1070.69 320.553 1071.97 319.892C1073.24 319.208 1074.19 318.299 1074.8 317.166V310.581H1070.98C1065.86 310.581 1063.13 312.351 1062.8 315.891L1062.76 316.493C1062.76 317.768 1063.21 318.818 1064.11 319.644C1065.01 320.47 1066.23 320.884 1067.79 320.884ZM1103.73 328H1093.46V273.617H1103.73V328ZM1150.99 317.414C1150.99 316.163 1150.37 315.183 1149.12 314.475C1147.89 313.743 1145.91 313.094 1143.17 312.528C1134.06 310.616 1129.5 306.745 1129.5 300.915C1129.5 297.516 1130.91 294.684 1133.72 292.418C1136.55 290.128 1140.24 288.983 1144.8 288.983C1149.66 288.983 1153.54 290.128 1156.45 292.418C1159.37 294.707 1160.84 297.681 1160.84 301.34H1150.6C1150.6 299.876 1150.13 298.673 1149.19 297.728C1148.24 296.761 1146.77 296.277 1144.76 296.277C1143.04 296.277 1141.71 296.666 1140.76 297.445C1139.82 298.224 1139.35 299.216 1139.35 300.419C1139.35 301.552 1139.88 302.473 1140.94 303.181C1142.02 303.865 1143.84 304.467 1146.39 304.987C1148.94 305.482 1151.09 306.049 1152.83 306.686C1158.24 308.669 1160.94 312.103 1160.94 316.989C1160.94 320.482 1159.44 323.315 1156.45 325.486C1153.45 327.634 1149.58 328.708 1144.83 328.708C1141.62 328.708 1138.77 328.142 1136.26 327.009C1133.79 325.852 1131.84 324.282 1130.42 322.3C1129.01 320.293 1128.3 318.134 1128.3 315.821H1138C1138.09 317.638 1138.77 319.031 1140.02 319.998C1141.27 320.966 1142.94 321.45 1145.05 321.45C1147 321.45 1148.48 321.084 1149.47 320.352C1150.49 319.597 1150.99 318.618 1150.99 317.414ZM1165.97 308.492C1165.97 304.692 1166.7 301.304 1168.17 298.33C1169.63 295.356 1171.73 293.055 1174.47 291.426C1177.23 289.798 1180.43 288.983 1184.06 288.983C1189.23 288.983 1193.44 290.565 1196.7 293.728C1199.98 296.891 1201.81 301.186 1202.19 306.615L1202.26 309.235C1202.26 315.112 1200.62 319.833 1197.34 323.397C1194.06 326.938 1189.66 328.708 1184.13 328.708C1178.61 328.708 1174.2 326.938 1170.89 323.397C1167.61 319.857 1165.97 315.042 1165.97 308.952V308.492ZM1176.2 309.235C1176.2 312.87 1176.89 315.655 1178.26 317.591C1179.62 319.503 1181.58 320.459 1184.13 320.459C1186.61 320.459 1188.55 319.515 1189.94 317.626C1191.33 315.714 1192.03 312.67 1192.03 308.492C1192.03 304.928 1191.33 302.166 1189.94 300.207C1188.55 298.248 1186.59 297.268 1184.06 297.268C1181.56 297.268 1179.62 298.248 1178.26 300.207C1176.89 302.142 1176.2 305.152 1176.2 309.235ZM1219.36 328H1209.09V273.617H1219.36V328ZM1250.77 324.105C1248.24 327.174 1244.75 328.708 1240.29 328.708C1236.18 328.708 1233.04 327.528 1230.87 325.168C1228.72 322.807 1227.62 319.349 1227.58 314.794V289.691H1237.81V314.44C1237.81 318.429 1239.62 320.423 1243.26 320.423C1246.73 320.423 1249.11 319.219 1250.41 316.812V289.691H1260.68V328H1251.05L1250.77 324.105ZM1280.65 280.274V289.691H1287.2V297.197H1280.65V316.316C1280.65 317.732 1280.92 318.747 1281.46 319.361C1282 319.975 1283.04 320.282 1284.58 320.282C1285.71 320.282 1286.71 320.199 1287.59 320.034V327.788C1285.58 328.401 1283.52 328.708 1281.39 328.708C1274.22 328.708 1270.56 325.085 1270.42 317.839V297.197H1264.82V289.691H1270.42V280.274H1280.65ZM1303.7 328H1293.43V289.691H1303.7V328ZM1292.83 279.778C1292.83 278.244 1293.33 276.981 1294.35 275.99C1295.39 274.998 1296.79 274.503 1298.56 274.503C1300.31 274.503 1301.7 274.998 1302.74 275.99C1303.78 276.981 1304.3 278.244 1304.3 279.778C1304.3 281.336 1303.77 282.61 1302.71 283.602C1301.67 284.593 1300.29 285.089 1298.56 285.089C1296.84 285.089 1295.45 284.593 1294.38 283.602C1293.35 282.61 1292.83 281.336 1292.83 279.778ZM1310.57 308.492C1310.57 304.692 1311.3 301.304 1312.76 298.33C1314.22 295.356 1316.32 293.055 1319.06 291.426C1321.82 289.798 1325.02 288.983 1328.66 288.983C1333.83 288.983 1338.04 290.565 1341.3 293.728C1344.58 296.891 1346.41 301.186 1346.78 306.615L1346.86 309.235C1346.86 315.112 1345.22 319.833 1341.93 323.397C1338.65 326.938 1334.25 328.708 1328.73 328.708C1323.2 328.708 1318.79 326.938 1315.49 323.397C1312.21 319.857 1310.57 315.042 1310.57 308.952V308.492ZM1320.8 309.235C1320.8 312.87 1321.48 315.655 1322.85 317.591C1324.22 319.503 1326.18 320.459 1328.73 320.459C1331.21 320.459 1333.14 319.515 1334.53 317.626C1335.93 315.714 1336.62 312.67 1336.62 308.492C1336.62 304.928 1335.93 302.166 1334.53 300.207C1333.14 298.248 1331.18 297.268 1328.66 297.268C1326.16 297.268 1324.22 298.248 1322.85 300.207C1321.48 302.142 1320.8 305.152 1320.8 309.235ZM1362.58 289.691L1362.89 294.117C1365.63 290.695 1369.3 288.983 1373.91 288.983C1377.97 288.983 1380.99 290.175 1382.97 292.559C1384.95 294.943 1385.97 298.507 1386.01 303.252V328H1375.78V303.5C1375.78 301.328 1375.31 299.758 1374.37 298.791C1373.42 297.799 1371.85 297.304 1369.66 297.304C1366.78 297.304 1364.62 298.531 1363.18 300.986V328H1352.95V289.691H1362.58ZM1414.55 317.414C1414.55 316.163 1413.92 315.183 1412.67 314.475C1411.45 313.743 1409.46 313.094 1406.73 312.528C1397.61 310.616 1393.06 306.745 1393.06 300.915C1393.06 297.516 1394.46 294.684 1397.27 292.418C1400.11 290.128 1403.8 288.983 1408.35 288.983C1413.22 288.983 1417.1 290.128 1420 292.418C1422.93 294.707 1424.39 297.681 1424.39 301.34H1414.16C1414.16 299.876 1413.69 298.673 1412.74 297.728C1411.8 296.761 1410.33 296.277 1408.32 296.277C1406.6 296.277 1405.26 296.666 1404.32 297.445C1403.37 298.224 1402.9 299.216 1402.9 300.419C1402.9 301.552 1403.43 302.473 1404.5 303.181C1405.58 303.865 1407.4 304.467 1409.95 304.987C1412.5 305.482 1414.64 306.049 1416.39 306.686C1421.8 308.669 1424.5 312.103 1424.5 316.989C1424.5 320.482 1423 323.315 1420 325.486C1417.01 327.634 1413.13 328.708 1408.39 328.708C1405.18 328.708 1402.32 328.142 1399.82 327.009C1397.34 325.852 1395.4 324.282 1393.98 322.3C1392.56 320.293 1391.86 318.134 1391.86 315.821H1401.56C1401.65 317.638 1402.32 319.031 1403.57 319.998C1404.83 320.966 1406.5 321.45 1408.6 321.45C1410.56 321.45 1412.04 321.084 1413.03 320.352C1414.04 319.597 1414.55 318.618 1414.55 317.414Z" fill="#A9E950"/>
<path d="M1484.77 269.122C1485.83 269.17 1486.36 269.702 1486.36 270.717C1486.36 271.539 1486.1 272.482 1485.56 273.545C1485.03 274.608 1484.5 275.454 1483.97 276.083C1482.95 277.34 1481.79 278.186 1480.49 278.621C1479.18 279.056 1477.68 279.273 1475.99 279.273C1475.41 279.273 1474.49 279.225 1473.24 279.128C1471.69 279.032 1470.53 279.007 1469.76 279.056C1469.37 279.056 1468.91 279.056 1468.38 279.056C1467.9 279.056 1467.56 279.152 1467.36 279.346C1467.22 279.539 1467.03 279.974 1466.78 280.651C1466.64 281.134 1466.54 281.763 1466.49 282.536C1466.49 283.31 1466.49 283.866 1466.49 284.204L1465.99 292.253C1465.84 295.056 1465.74 297.522 1465.7 299.649C1465.65 301.727 1465.6 303.467 1465.55 304.869C1465.55 306.755 1465.53 308.156 1465.48 309.075C1465.87 308.978 1466.13 308.93 1466.28 308.93C1467.34 308.93 1467.87 309.752 1467.87 311.395C1467.87 312.555 1467.68 313.788 1467.29 315.093C1466.95 316.398 1466.52 317.849 1465.99 319.444C1465.7 320.266 1465.07 321.377 1464.1 322.779C1463.18 324.133 1462.14 325.317 1460.98 326.332C1459.82 327.347 1458.81 327.855 1457.94 327.855C1456.83 327.855 1456.08 326.985 1455.69 325.245C1455.3 323.553 1455.11 321.522 1455.11 319.154C1455.11 316.495 1455.38 313.135 1455.91 309.075L1456.42 303.854C1457.14 294.428 1458.03 286.742 1459.1 280.796C1458.81 280.893 1458.01 281.159 1456.71 281.594C1455.45 281.98 1454.29 282.44 1453.22 282.971C1452.16 283.503 1451.34 284.059 1450.76 284.639C1450.13 285.316 1449.57 286.186 1449.09 287.249C1448.46 288.313 1447.91 289.135 1447.42 289.715C1446.99 290.295 1446.34 290.754 1445.47 291.092C1444.93 291.334 1444.4 291.455 1443.87 291.455C1442.86 291.455 1442.35 290.827 1442.35 289.57C1442.35 288.748 1442.54 287.781 1442.93 286.669C1443.31 285.557 1443.73 284.663 1444.16 283.986C1447.4 278.669 1452.38 274.85 1459.1 272.53C1465.82 270.161 1472.92 268.977 1480.42 268.977C1481.48 268.977 1482.93 269.025 1484.77 269.122ZM1491.5 267.962C1491.59 267.043 1492.37 266.221 1493.82 265.496C1495.27 264.723 1496.64 264.336 1497.95 264.336C1499.5 264.336 1500.25 264.916 1500.2 266.076C1499.42 274.729 1498.14 286.669 1496.35 301.896C1495.19 312.289 1494.44 319.033 1494.11 322.127C1494.01 323.142 1493.24 324.06 1491.79 324.882C1490.38 325.656 1489.01 326.042 1487.65 326.042C1485.77 326.042 1484.9 325.341 1485.04 323.939C1486.73 307.31 1488.89 288.651 1491.5 267.962ZM1515.81 303.419L1515.23 304.869L1520.3 309.147L1519.79 307.045C1519.46 305.691 1518.78 302.815 1517.76 298.416L1515.81 303.419ZM1524.07 282.246C1524.75 286.452 1525.59 290.73 1526.61 295.08C1527.67 299.383 1528.95 304.338 1530.45 309.945C1531.85 315.262 1532.77 318.791 1533.21 320.531C1533.26 320.676 1533.28 320.894 1533.28 321.184C1533.28 322.344 1532.63 323.359 1531.32 324.229C1530.02 325.051 1528.66 325.462 1527.26 325.462C1526.1 325.462 1525.21 325.148 1524.58 324.52C1523.18 323.021 1521.7 321.595 1520.16 320.241C1518.61 318.888 1516.58 317.22 1514.07 315.238L1511.67 313.28C1509.64 317.631 1508.07 320.846 1506.96 322.924C1506.62 323.649 1505.73 324.326 1504.28 324.955C1502.87 325.535 1501.57 325.825 1500.36 325.825C1499.01 325.825 1498.33 325.39 1498.33 324.52C1498.33 324.278 1498.4 323.988 1498.55 323.649C1500 320.072 1501.71 315.963 1503.7 311.323L1505.22 307.625C1504.01 306.416 1503.41 305.812 1503.41 305.812C1503.07 305.474 1502.9 305.087 1502.9 304.652C1502.9 303.83 1503.43 303.057 1504.49 302.331C1505.56 301.558 1506.74 301.05 1508.05 300.809C1510.37 295.25 1512.54 289.594 1514.57 283.841C1514.77 283.165 1515.37 282.585 1516.39 282.101C1517.45 281.569 1518.56 281.231 1519.72 281.086C1520.54 280.844 1521.24 280.723 1521.82 280.723C1523.18 280.723 1523.93 281.231 1524.07 282.246ZM1568.05 281.956C1568.87 281.956 1569.55 282.15 1570.08 282.536C1570.61 282.923 1570.88 283.382 1570.88 283.914C1570.88 284.349 1570.66 284.832 1570.23 285.364C1570.32 285.267 1569.14 286.597 1566.68 289.352C1561.45 295.153 1557.64 299.6 1555.22 302.694C1558.46 307.625 1562.13 312.483 1566.24 317.269C1566.58 317.607 1566.75 317.994 1566.75 318.429C1566.75 319.395 1566 320.338 1564.5 321.257C1563.05 322.127 1561.62 322.562 1560.22 322.562C1559.25 322.562 1558.53 322.296 1558.05 321.764C1554.71 317.945 1551.81 314.271 1549.35 310.743C1547.51 313.353 1544.8 317.317 1541.22 322.634C1540.84 323.166 1540.09 323.625 1538.98 324.012C1537.86 324.35 1536.75 324.52 1535.64 324.52C1534.82 324.52 1534.14 324.423 1533.61 324.229C1533.08 323.988 1532.81 323.649 1532.81 323.214C1532.81 322.973 1532.96 322.634 1533.25 322.199C1538.03 315.045 1542.12 309.268 1545.5 304.869C1542.02 299.31 1539.07 293.606 1536.66 287.757C1536.56 287.37 1536.51 287.104 1536.51 286.959C1536.51 285.944 1537.21 285.026 1538.61 284.204C1540.02 283.334 1541.42 282.899 1542.82 282.899C1544.37 282.899 1545.33 283.406 1545.72 284.421C1547.41 288.482 1549.42 292.639 1551.74 296.893C1555.7 292.156 1559.45 287.974 1562.98 284.349C1563.61 283.672 1564.38 283.116 1565.3 282.681C1566.26 282.198 1567.18 281.956 1568.05 281.956ZM1581.44 312.918C1586.52 309.002 1590.51 304.845 1593.41 300.446C1589.54 299.286 1585.65 296.942 1581.73 293.413C1581.64 297.812 1581.54 304.313 1581.44 312.918ZM1602.4 296.458C1602.74 296.7 1602.91 297.014 1602.91 297.401C1602.91 297.739 1602.81 298.078 1602.62 298.416C1600.05 303.347 1596.67 307.721 1592.46 311.54C1588.26 315.359 1583.16 319.178 1577.16 322.997C1576.58 323.335 1575.93 323.649 1575.21 323.939C1574.48 324.181 1573.78 324.302 1573.1 324.302C1572.38 324.302 1571.75 324.109 1571.22 323.722C1570.64 323.287 1570.35 322.755 1570.35 322.127C1570.35 321.305 1570.81 320.58 1571.73 319.951C1571.82 319.903 1571.92 319.831 1572.02 319.734C1572.11 319.637 1572.26 319.54 1572.45 319.444L1572.74 301.461C1572.84 297.546 1572.93 291.576 1573.03 283.551C1572.98 283.455 1572.96 283.285 1572.96 283.044C1572.96 282.947 1573.01 282.705 1573.1 282.319V281.521C1573.15 280.603 1573.78 279.829 1574.99 279.201C1576.2 278.524 1577.48 278.186 1578.83 278.186C1579.75 278.186 1580.48 278.355 1581.01 278.693C1581.59 279.032 1581.88 279.563 1581.88 280.288V281.014C1587.73 289.086 1594.11 294.017 1601.02 295.806C1601.75 296.047 1602.2 296.265 1602.4 296.458ZM1630.54 317.776C1631.27 318.018 1631.63 318.453 1631.63 319.081C1631.63 319.855 1631.17 320.701 1630.25 321.619C1629.24 322.634 1627.93 323.142 1626.33 323.142C1625.56 323.142 1624.91 323.045 1624.38 322.852C1621.82 322.03 1619.49 321.619 1617.42 321.619C1613.79 321.619 1610.09 322.779 1606.32 325.1C1605.69 325.535 1604.92 325.897 1604 326.187C1603.13 326.429 1602.31 326.55 1601.54 326.55C1600.81 326.55 1600.23 326.429 1599.8 326.187C1599.36 325.897 1599.14 325.462 1599.14 324.882C1599.14 324.544 1599.19 324.254 1599.29 324.012C1600.69 320.096 1601.8 316.568 1602.62 313.425C1603.49 310.283 1604.07 307.093 1604.36 303.854C1604.8 299.504 1605.02 296.313 1605.02 294.283C1605.02 288.917 1603.98 284.808 1601.9 281.956C1601.66 281.666 1601.54 281.279 1601.54 280.796C1601.54 279.829 1602.21 278.935 1603.57 278.113C1604.92 277.243 1606.25 276.808 1607.55 276.808C1608.42 276.808 1609.05 277.001 1609.44 277.388C1610.07 277.63 1610.48 278.016 1610.67 278.548C1611.88 281.739 1613.55 284.446 1615.68 286.669C1617.8 288.845 1620.32 289.932 1623.22 289.932C1623.75 289.932 1624.55 289.836 1625.61 289.642C1626.29 289.546 1626.72 289.497 1626.91 289.497C1627.74 289.497 1628.34 289.691 1628.73 290.077C1629.16 290.416 1629.38 290.899 1629.38 291.527C1629.38 292.204 1629.09 292.881 1628.51 293.558C1627.98 294.235 1627.25 294.718 1626.33 295.008C1624.35 295.685 1622.37 296.023 1620.39 296.023C1618.02 296.023 1615.75 295.54 1613.57 294.573C1613.48 297.28 1613.36 299.31 1613.21 300.664L1612.7 305.232C1614.59 304.893 1616.47 304.603 1618.36 304.362L1619.37 304.289C1621.31 304.289 1622.27 304.942 1622.27 306.247C1622.27 307.117 1621.79 307.891 1620.82 308.567C1619.86 309.244 1618.87 309.679 1617.85 309.872C1616.35 310.163 1614.3 310.477 1611.69 310.815C1611.16 313.184 1610.58 315.407 1609.95 317.486C1613.14 316.326 1616.38 315.746 1619.66 315.746C1623.29 315.746 1626.91 316.423 1630.54 317.776ZM1663.2 278.983C1663.74 278.597 1664.39 278.258 1665.16 277.968C1665.94 277.678 1666.66 277.533 1667.34 277.533C1667.87 277.533 1668.35 277.678 1668.79 277.968C1669.37 278.355 1669.66 278.887 1669.66 279.563C1669.66 280.385 1669.27 281.134 1668.5 281.811C1666.13 283.89 1664.19 286.452 1662.7 289.497C1661.25 292.494 1659.8 296.168 1658.35 300.519C1656.46 306.271 1654.24 314.03 1651.67 323.794C1651.43 324.616 1650.61 325.486 1649.21 326.405C1647.81 327.275 1646.5 327.71 1645.29 327.71C1644.23 327.71 1643.53 327.251 1643.19 326.332C1638.7 313.522 1636.3 299.504 1636.01 284.276C1635.96 283.261 1636.69 282.295 1638.19 281.376C1639.73 280.458 1641.19 279.998 1642.54 279.998C1643.94 279.998 1644.64 280.53 1644.64 281.594C1644.64 290.536 1645.63 299.383 1647.61 308.132C1648.87 303.878 1650.08 300.253 1651.24 297.256C1652.84 292.953 1654.53 289.304 1656.32 286.307C1658.1 283.261 1660.4 280.82 1663.2 278.983ZM1687.54 293.775C1686.62 293.002 1685.02 291.987 1682.75 290.73C1680.53 289.425 1678.81 288.772 1677.6 288.772C1676.64 288.772 1676.15 289.255 1676.15 290.222C1676.15 290.561 1676.27 291.141 1676.52 291.963C1676.85 293.074 1677.6 294.138 1678.76 295.153C1679.92 296.12 1681.45 297.256 1683.33 298.561C1684.88 299.624 1685.87 300.35 1686.3 300.736C1688.43 302.573 1690.12 304.12 1691.38 305.377C1692.64 306.585 1693.77 308.036 1694.79 309.727C1695.85 311.371 1696.38 313.063 1696.38 314.803C1696.38 315.963 1696.09 317.172 1695.51 318.429C1694.4 320.701 1692.56 322.441 1690 323.649C1687.49 324.858 1684.81 325.462 1681.95 325.462C1680.99 325.462 1680.02 325.39 1679.05 325.245C1672.48 324.133 1666.41 319.758 1660.85 312.12C1660.56 311.685 1660.42 311.25 1660.42 310.815C1660.42 309.752 1661.12 308.785 1662.52 307.915C1663.97 306.996 1665.4 306.537 1666.8 306.537C1667.86 306.537 1668.64 306.851 1669.12 307.48C1672.12 311.54 1675.07 314.513 1677.97 316.398C1680.62 318.139 1682.87 319.009 1684.71 319.009C1686.21 319.009 1686.96 318.356 1686.96 317.051C1686.96 316.133 1686.59 314.997 1685.87 313.643C1685.14 312.338 1684.2 311.105 1683.04 309.945C1681.88 308.785 1680.41 307.455 1678.62 305.957L1676.66 304.289C1676.47 304.096 1675.57 303.395 1673.98 302.186C1672.67 301.22 1671.56 300.325 1670.64 299.504C1669.72 298.682 1668.95 297.787 1668.32 296.821C1667.5 295.516 1667.09 294.162 1667.09 292.76C1667.09 290.585 1668.01 288.603 1669.84 286.814C1671.73 284.977 1673.88 283.721 1676.3 283.044C1677.85 282.609 1679.32 282.391 1680.72 282.391C1683.33 282.391 1685.85 282.995 1688.26 284.204C1690.73 285.412 1693.22 287.08 1695.73 289.207C1696.17 289.546 1696.38 289.956 1696.38 290.44C1696.38 291.358 1695.63 292.253 1694.14 293.123C1692.64 293.993 1691.16 294.428 1689.71 294.428C1688.75 294.428 1688.02 294.21 1687.54 293.775ZM1726.6 302.259C1726.51 303.032 1726.75 303.637 1727.33 304.072C1727.91 304.458 1728.7 304.652 1729.72 304.652C1731.41 304.652 1733.08 304.217 1734.72 303.347C1736.37 302.428 1737.21 301.365 1737.26 300.156C1737.5 294.355 1737.62 288.555 1737.62 282.754C1737.62 276.953 1737.5 271.104 1737.26 265.206C1737.07 264.433 1736.29 264.046 1734.94 264.046C1733.88 264.046 1732.69 264.288 1731.39 264.771C1730.08 265.255 1729.02 265.883 1728.2 266.657C1727.38 267.382 1727.06 268.131 1727.25 268.904C1727.25 272.675 1727.13 277.388 1726.89 283.044C1726.84 284.446 1726.77 286.79 1726.67 290.077C1726.58 293.364 1726.53 296.12 1726.53 298.343C1726.53 300.132 1726.55 301.437 1726.6 302.259ZM1721.09 316.688C1720.75 316.398 1720.58 316.06 1720.58 315.673C1720.58 315.045 1721.02 314.392 1721.89 313.716C1722.76 312.99 1723.82 312.386 1725.08 311.903C1726.38 311.419 1727.54 311.178 1728.56 311.178C1729.48 311.178 1730.16 311.371 1730.59 311.758L1731.1 312.193C1732.11 311.613 1733.39 311.226 1734.94 311.033C1735.71 310.936 1736.49 311.057 1737.26 311.395C1738.03 311.685 1738.42 312.144 1738.42 312.773C1738.42 313.063 1738.3 313.401 1738.06 313.788C1737.82 314.078 1737.58 314.416 1737.33 314.803C1737.14 315.142 1736.87 315.528 1736.54 315.963L1738.86 317.269C1739.92 317.849 1740.69 318.308 1741.18 318.646C1741.61 318.84 1741.83 319.13 1741.83 319.516C1741.83 320 1741.51 320.58 1740.89 321.257C1740.31 321.885 1739.77 322.344 1739.29 322.634C1738.57 323.069 1737.7 323.456 1736.68 323.794C1735.71 324.133 1734.8 324.302 1733.93 324.302C1733.3 324.302 1732.79 324.205 1732.4 324.012C1731.58 323.529 1731.03 323.239 1730.74 323.142C1729.87 323.964 1728.83 324.616 1727.62 325.1C1726.46 325.535 1725.27 325.728 1724.06 325.68C1723.29 325.631 1722.64 325.462 1722.11 325.172C1721.62 324.834 1721.38 324.374 1721.38 323.794C1721.38 323.408 1721.53 322.924 1721.82 322.344C1722.3 321.329 1723 320.362 1723.92 319.444C1724.06 319.25 1724.21 319.13 1724.35 319.081C1723.53 318.55 1722.44 317.752 1721.09 316.688Z" fill="#FF5572"/>
<g filter="url(#filter3_d)">
<g clip-path="url(#clip0)">
<rect x="860.823" y="571.215" width="469.971" height="44.2326" rx="13.8227" fill="#757171"/>
<rect x="1090.28" y="587.802" width="49.7616" height="11.9797" rx="5.98983" fill="#ECE5E5"/>
<circle cx="1059.41" cy="593.792" r="7.83285" fill="#ECE5E5"/>
<circle cx="1287.03" cy="588.022" r="7.592" fill="#FFF5F5"/>
<rect x="1274.58" y="597.436" width="24.9018" height="9.71776" rx="4.85888" fill="#FFF5F5"/>
<rect x="869.116" y="628.349" width="132.698" height="230.378" rx="47.9186" fill="#757171"/>
<rect x="909.663" y="668.895" width="70.0349" height="16.5872" rx="8.2936" fill="#C4C4C4"/>
<circle cx="896.761" cy="676.268" r="7.37209" fill="#C4C4C4"/>
<rect x="909.663" y="705.756" width="70.0349" height="16.5872" rx="8.2936" fill="#C4C4C4"/>
<circle cx="896.761" cy="714.05" r="7.37209" fill="#C4C4C4"/>
<rect x="909.663" y="743.538" width="70.0349" height="16.5872" rx="8.2936" fill="#C4C4C4"/>
<circle cx="896.761" cy="750.91" r="7.37209" fill="#C4C4C4"/>
<rect x="1028.54" y="643.093" width="284.747" height="208.262" rx="41.468" fill="#C4C4C4" fill-opacity="0.75"/>
<circle cx="1077.38" cy="702.07" r="18.4302" fill="#FB5582"/>
<circle cx="1077.38" cy="751.831" r="18.4302" fill="#25FED7"/>
<circle cx="1078.3" cy="801.593" r="18.4302" fill="#FCCA06"/>
<rect x="1115.16" y="783.163" width="159.422" height="41.468" rx="18.4302" fill="#C4C4C4"/>
<rect x="1115.16" y="730.637" width="159.422" height="41.468" rx="18.4302" fill="#C4C4C4"/>
<rect x="1115.16" y="679.032" width="159.422" height="41.468" rx="18.4302" fill="#C4C4C4"/>
</g>
<rect x="851.147" y="566.147" width="488.401" height="308.706" rx="22.577" stroke="url(#paint4_linear)" stroke-width="8.2936" shape-rendering="crispEdges"/>
</g>
</g>
<defs>
<filter id="filter0_d" x="0" y="2" width="2189" height="1259.66" filterUnits="userSpaceOnUse" color-interpolation-filters="sRGB">
<feFlood flood-opacity="0" result="BackgroundImageFix"/>
<feColorMatrix in="SourceAlpha" type="matrix" values="0 0 0 0 0 0 0 0 0 0 0 0 0 0 0 0 0 0 127 0" result="hardAlpha"/>
<feOffset dy="4"/>
<feGaussianBlur stdDeviation="2"/>
<feColorMatrix type="matrix" values="0 0 0 0 0 0 0 0 0 0 0 0 0 0 0 0 0 0 0.25 0"/>
<feBlend mode="normal" in2="BackgroundImageFix" result="effect1_dropShadow"/>
<feBlend mode="normal" in="SourceGraphic" in2="effect1_dropShadow" result="shape"/>
</filter>
<filter id="filter1_f" x="82.2695" y="1216.97" width="2025.54" height="51.6925" filterUnits="userSpaceOnUse" color-interpolation-filters="sRGB">
<feFlood flood-opacity="0" result="BackgroundImageFix"/>
<feBlend mode="normal" in="SourceGraphic" in2="BackgroundImageFix" result="shape"/>
<feGaussianBlur stdDeviation="7.5" result="effect1_foregroundBlur"/>
</filter>
<filter id="filter2_dd" x="207.146" y="0" width="1774.71" height="1220.61" filterUnits="userSpaceOnUse" color-interpolation-filters="sRGB">
<feFlood flood-opacity="0" result="BackgroundImageFix"/>
<feColorMatrix in="SourceAlpha" type="matrix" values="0 0 0 0 0 0 0 0 0 0 0 0 0 0 0 0 0 0 127 0" result="hardAlpha"/>
<feOffset/>
<feGaussianBlur stdDeviation="1"/>
<feColorMatrix type="matrix" values="0 0 0 0 0 0 0 0 0 0.0823529 0 0 0 0 0.25098 0 0 0 0.14 0"/>
<feBlend mode="normal" in2="BackgroundImageFix" result="effect1_dropShadow"/>
<feColorMatrix in="SourceAlpha" type="matrix" values="0 0 0 0 0 0 0 0 0 0 0 0 0 0 0 0 0 0 127 0" result="hardAlpha"/>
<feOffset dy="2"/>
<feGaussianBlur stdDeviation="2"/>
<feColorMatrix type="matrix" values="0 0 0 0 0 0 0 0 0 0.0823529 0 0 0 0 0.25098 0 0 0 0.05 0"/>
<feBlend mode="normal" in2="effect1_dropShadow" result="effect2_dropShadow"/>
<feBlend mode="normal" in="SourceGraphic" in2="effect2_dropShadow" result="shape"/>
</filter>
<filter id="filter3_d" x="749.705" y="562" width="593.989" height="389.799" filterUnits="userSpaceOnUse" color-interpolation-filters="sRGB">
<feFlood flood-opacity="0" result="BackgroundImageFix"/>
<feColorMatrix in="SourceAlpha" type="matrix" values="0 0 0 0 0 0 0 0 0 0 0 0 0 0 0 0 0 0 127 0" result="hardAlpha"/>
<feOffset dx="-97.2946" dy="72.7994"/>
<feComposite in2="hardAlpha" operator="out"/>
<feColorMatrix type="matrix" values="0 0 0 0 0.4375 0 0 0 0 1 0 0 0 0 0.964844 0 0 0 0.1 0"/>
<feBlend mode="normal" in2="BackgroundImageFix" result="effect1_dropShadow"/>
<feBlend mode="normal" in="SourceGraphic" in2="effect1_dropShadow" result="shape"/>
</filter>
<linearGradient id="paint0_linear" x1="4" y1="1198.34" x2="1094.5" y2="1198.34" gradientUnits="userSpaceOnUse">
<stop stop-color="#717576"/>
<stop offset="0.016907" stop-color="#9C9FA1"/>
<stop offset="0.0353058" stop-color="#9C9FA1"/>
<stop offset="0.0571855" stop-color="#797E82"/>
<stop offset="0.0979612" stop-color="#797E82"/>
<stop offset="0.151169" stop-color="#B2B5B7"/>
<stop offset="0.756906" stop-color="#CACDCF"/>
<stop offset="1" stop-color="#CACDCF"/>
</linearGradient>
<linearGradient id="paint1_linear" x1="2184.46" y1="1198.34" x2="1093.96" y2="1198.34" gradientUnits="userSpaceOnUse">
<stop stop-color="#717576"/>
<stop offset="0.016907" stop-color="#9C9FA1"/>
<stop offset="0.0353058" stop-color="#9C9FA1"/>
<stop offset="0.0571855" stop-color="#797E82"/>
<stop offset="0.0979612" stop-color="#797E82"/>
<stop offset="0.151169" stop-color="#B2B5B7"/>
<stop offset="0.756906" stop-color="#CACDCF"/>
<stop offset="1" stop-color="#CACDCF"/>
</linearGradient>
<linearGradient id="paint2_linear" x1="937.785" y1="1192.92" x2="1249.05" y2="1192.92" gradientUnits="userSpaceOnUse">
<stop stop-opacity="0.5"/>
<stop offset="0.139373" stop-color="#818487" stop-opacity="0"/>
<stop offset="0.860627" stop-color="#818487" stop-opacity="0"/>
<stop offset="1" stop-opacity="0.5"/>
</linearGradient>
<linearGradient id="paint3_linear" x1="1094.5" y1="1214.61" x2="1094.5" y2="1244.98" gradientUnits="userSpaceOnUse">
<stop stop-color="#838688"/>
<stop offset="1" stop-color="#17191B"/>
</linearGradient>
<linearGradient id="paint4_linear" x1="875.106" y1="591.028" x2="1332.64" y2="864.256" gradientUnits="userSpaceOnUse">
<stop stop-color="#25FED7"/>
<stop offset="1" stop-color="#932187"/>
</linearGradient>
<clipPath id="clip0">
<rect x="847" y="562" width="496.695" height="317" rx="26.7238" fill="white"/>
</clipPath>
</defs>
</svg>
